<?xml version="1.0" encoding="UTF-8"?>
<svg xmlns="http://www.w3.org/2000/svg" xmlns:xlink="http://www.w3.org/1999/xlink" viewBox="0 0 34.36 17.22">
  <defs>
    <style>
      .cls-1 {
        fill: #86caf0;
      }

      .cls-2 {
        fill: #96e5fe;
      }

      .cls-3 {
        fill: url(#linear-gradient);
      }

      .cls-4 {
        isolation: isolate;
      }

      .cls-5 {
        fill: #fffcf6;
      }

      .cls-5, .cls-6, .cls-7, .cls-8, .cls-9, .cls-10, .cls-11, .cls-12 {
        mix-blend-mode: overlay;
      }

      .cls-13 {
        fill: #daf5fe;
      }

      .cls-6 {
        fill: url(#linear-gradient-8);
      }

      .cls-7 {
        fill: url(#linear-gradient-2);
      }

      .cls-8 {
        fill: url(#linear-gradient-3);
      }

      .cls-9 {
        fill: url(#linear-gradient-4);
      }

      .cls-10 {
        fill: url(#linear-gradient-6);
      }

      .cls-11 {
        fill: url(#linear-gradient-5);
      }

      .cls-12 {
        fill: url(#linear-gradient-7);
      }

      .cls-14 {
        fill: #b3ecff;
        mix-blend-mode: multiply;
      }

      .cls-15 {
        fill: #56cbf5;
      }
    </style>
    <linearGradient id="linear-gradient" x1="-2233.96" y1="-66.3" x2="-2234.13" y2="-52.81" gradientTransform="translate(-2058.86 -842.41) rotate(-156.09) scale(1 -1)" gradientUnits="userSpaceOnUse">
      <stop offset="0" stop-color="#fff"/>
      <stop offset="1" stop-color="#73daff"/>
    </linearGradient>
    <linearGradient id="linear-gradient-2" x1="-2234.16" y1="-56.4" x2="-2233.98" y2="-59.98" gradientTransform="translate(-2058.86 -842.41) rotate(-156.09) scale(1 -1)" gradientUnits="userSpaceOnUse">
      <stop offset=".12" stop-color="#fff"/>
      <stop offset="1" stop-color="#fffcf6" stop-opacity="0"/>
    </linearGradient>
    <linearGradient id="linear-gradient-3" x1="-2233.65" y1="-67.4" x2="-2234.03" y2="-62.53" xlink:href="#linear-gradient-2"/>
    <linearGradient id="linear-gradient-4" x1="-2240.2" y1="-62.16" x2="-2235.86" y2="-61.3" xlink:href="#linear-gradient-2"/>
    <linearGradient id="linear-gradient-5" x1="-2180.16" y1="-61.55" x2="-2175.83" y2="-60.7" gradientTransform="translate(1970.93 943.68) rotate(23.91)" xlink:href="#linear-gradient-2"/>
    <linearGradient id="linear-gradient-6" x1="-19.74" y1="-491.01" x2="-25.3" y2="-483.41" gradientTransform="translate(-177.08 454.06) rotate(28.01)" gradientUnits="userSpaceOnUse">
      <stop offset="0" stop-color="#ddc5f0" stop-opacity="0"/>
      <stop offset=".04" stop-color="#ddc5f0" stop-opacity=".02"/>
      <stop offset=".1" stop-color="#dfc5f0" stop-opacity=".09"/>
      <stop offset=".16" stop-color="#e2c6f0" stop-opacity=".2"/>
      <stop offset=".23" stop-color="#e6c8f1" stop-opacity=".35"/>
      <stop offset=".3" stop-color="#eccaf1" stop-opacity=".54"/>
      <stop offset=".37" stop-color="#f2ccf2" stop-opacity=".78"/>
      <stop offset=".44" stop-color="#f9cff3"/>
    </linearGradient>
    <linearGradient id="linear-gradient-7" x1="-18.58" y1="-490.16" x2="-24.14" y2="-482.56" xlink:href="#linear-gradient-6"/>
    <linearGradient id="linear-gradient-8" x1="-23.14" y1="-493.49" x2="-28.7" y2="-485.9" gradientTransform="translate(-177.08 454.06) rotate(28.01)" gradientUnits="userSpaceOnUse">
      <stop offset="0" stop-color="#ddc5f0" stop-opacity="0"/>
      <stop offset="0" stop-color="#ddc5f0" stop-opacity=".03"/>
      <stop offset=".08" stop-color="#e4c7f0" stop-opacity=".28"/>
      <stop offset=".15" stop-color="#ebcaf1" stop-opacity=".5"/>
      <stop offset=".21" stop-color="#f0cbf2" stop-opacity=".68"/>
      <stop offset=".28" stop-color="#f3cdf2" stop-opacity=".82"/>
      <stop offset=".34" stop-color="#f6cef2" stop-opacity=".92"/>
      <stop offset=".39" stop-color="#f8cef2" stop-opacity=".98"/>
      <stop offset=".44" stop-color="#f9cff3"/>
    </linearGradient>
  </defs>
  <g class="cls-4">
    <g id="Layer_2" data-name="Layer 2">
      <g id="Layer_1-2" data-name="Layer 1">
        <g>
          <g>
            <path class="cls-3" d="M9.21,16.31c-.46,0-.89-.21-1.18-.57l-2.32-2.94-3.74.25s-.1,0-.11,0c-.55,0-1.06-.3-1.32-.79-.27-.5-.24-1.07.08-1.54l2.07-3.12-1.39-3.47c-.19-.47-.13-.98.15-1.4.28-.42.75-.67,1.24-.67.14,0,.28.02.41.06l3.61,1.01,2.88-2.4c.28-.23.61-.35.96-.35.21,0,.42.04.61.13.53.23.87.74.89,1.31l.15,3.74,3.17,2c.12.08.23.17.33.27,0,0,.02.02.03.03.31.37.42.86.31,1.34-.12.49-.46.87-.93,1.04l-3.51,1.3-.92,3.63c-.17.67-.77,1.14-1.47,1.14Z"/>
            <path class="cls-15" d="M10.55.74c.16,0,.32.03.46.1.37.16.65.52.67.99l.16,3.94,3.33,2.1c.1.06.18.13.25.21h0c.5.57.31,1.53-.46,1.82l-3.69,1.37-.97,3.82c-.14.55-.62.86-1.11.86-.32,0-.65-.14-.89-.43l-2.44-3.09h-.04s-3.9.26-3.9.26c-.03,0-.05,0-.08,0-.89,0-1.45-1-.94-1.77l2.18-3.28-1.46-3.66c-.31-.77.28-1.56,1.05-1.56.1,0,.21.01.31.04l3.79,1.06,3.03-2.52c.22-.18.47-.27.72-.27M10.55,0c-.44,0-.85.15-1.2.44l-2.73,2.27-3.42-.96c-.17-.05-.34-.07-.51-.07-.62,0-1.2.31-1.55.83-.35.52-.42,1.16-.19,1.75l1.32,3.29-1.97,2.96c-.38.58-.42,1.31-.09,1.92.33.61.96.99,1.65.99.04,0,.09,0,.13,0l3.54-.24,2.2,2.78c.36.45.89.71,1.47.71.86,0,1.61-.58,1.82-1.42l.87-3.44,3.33-1.23c.59-.22,1.01-.69,1.17-1.3.15-.59,0-1.2-.38-1.66-.01-.02-.03-.03-.04-.05-.12-.13-.25-.24-.4-.34l-3.01-1.89-.15-3.55c-.03-.72-.46-1.35-1.11-1.64-.24-.11-.5-.16-.76-.16h0Z"/>
          </g>
          <path class="cls-14" d="M3.01,2.47l3.79,1.06,3.03-2.52c.36-.3.82-.33,1.19-.17,0,0-.51-.13-1.29.8-.78.93-2.08,2.85-2.19,2.93-.1.08-4.31-1.83-4.79-1.23-.85,1.06,1.16,3.41,1.56,4.07.4.66-1.92,2.92-2.08,3.8-.15.88,4.29-.46,4.38-.42,0,0,0,0,0,0,0,0,0,0,0,0,.08.04,2.07,4.23,2.62,3.53.55-.71.67-3.95,1.42-4.09.76-.14,3.85-.23,4.06-1.57.12-.76-4.12-2.59-4.13-2.73,0-.13.54-2.38.7-3.59.17-1.21-.27-1.5-.27-1.5.37.16.65.52.67.99l.16,3.94,3.33,2.1c.8.5.67,1.7-.21,2.03l-3.69,1.37-.97,3.82c-.23.91-1.41,1.17-1.99.43l-2.42-3.06s0,0,0,0l-.02-.03h-.04s0,0,0,0l-3.9.26c-.94.06-1.54-.98-1.02-1.76l2.18-3.28-1.46-3.66c-.35-.87.46-1.77,1.36-1.52Z"/>
          <path class="cls-7" d="M9.82,9.12s-.31,3.53-.75,4.09c-.44.56-1.66-2.9-1.83-3.2-.17-.29-2.74.66-3.47.68-.72.02.69-2.13,1.8-3.61"/>
          <path class="cls-8" d="M10.01,6.64s1.13-4.51.8-4.98c-.33-.47-1.78,1.48-3.23,3.44"/>
          <path class="cls-9" d="M10.21,6.43s3.89,1.29,4,2.08c.11.78-2.34,1.02-3.28.95-.94-.07-2.45-1.37-2.45-1.37"/>
          <path class="cls-11" d="M7.31,5.14s-3.57-2.02-4.22-1.57c-.65.45.81,2.42,1.5,3.07s2.66.9,2.66.9"/>
          <g>
            <path class="cls-5" d="M9.6,15.24c.42-.55,1.06-4.31,1.06-4.31,0,0,4.6-1.31,4.81-1.86.12-.31.05-.71-.03-.99.5.57.31,1.52-.46,1.81l-3.69,1.37-.97,3.82c-.23.91-1.41,1.17-1.99.43l-2.44-3.09.29-.66s1.85,2.73,2.05,2.97c.19.24.96,1.06,1.38.51Z"/>
            <path class="cls-5" d="M2.68,2.42c-.26.12-.6.34-.76.64-.26.53,1.85,4.82,1.85,4.82,0,0-2.36,3-2.48,3.68-.13.68.99.7,1.3.68.31-.02,3.58-.48,3.58-.48l-.29.66-3.93.26c-.94.06-1.54-.98-1.02-1.76l2.18-3.28-1.46-3.66c-.3-.77.27-1.55,1.03-1.56Z"/>
          </g>
        </g>
        <g>
          <g>
            <path class="cls-2" d="M30.6,17.16c-.13,0-.24-.08-.3-.22l-.37-.84s-.2.52-.24.62c-.06.15-.18.24-.31.24,0,0-.1-.02-.11-.02-.09-.03-.15-.09-.19-.17-.04-.08-.04-.18,0-.28l.45-1.17s0-.09,0-.13c-.03-.09-.08-.18-.12-.29,0,0-.32.81-.39,1-.06.15-.18.24-.31.24,0,0-.11-.02-.11-.02-.18-.07-.26-.26-.18-.46l.06-.14c.18-.47.36-.93.54-1.39.02-.06.02-.09,0-.15-.06-.12-.11-.24-.17-.37,0,0-.45.79-.53.91-.06.11-.16.17-.28.17-.19-.02-.29-.1-.33-.25l-.32-1-.02.03c-.05.07-.1.14-.16.21-.09.09-.11.19-.08.34.07.37.12.74.18,1.11l.06.41c.02.18-.05.32-.21.38,0,0-.11.02-.12.02-.11,0-.21-.05-.26-.15-.03-.05-.05-.11-.06-.17l-.16-1.05h0c-.08.11-.15.21-.22.3.06.47.13.87.19,1.27.01.09,0,.17-.01.23-.04.13-.16.21-.3.21-.19-.02-.3-.14-.33-.29-.03-.18-.06-.37-.09-.56v-.1s-.27.34-.27.34l-.29.39c-.07.1-.17.16-.28.16-.07,0-.13-.02-.19-.07-.07-.05-.12-.12-.13-.2-.01-.09.01-.19.08-.28l.62-.84-.08.1-.18.04s-.48.07-.49.07c-.23,0-.36-.11-.39-.26-.01-.09,0-.18.06-.25.05-.07.14-.12.24-.14.4-.06.8-.13,1.21-.19.08-.01.12-.04.16-.09.05-.08.1-.15.17-.23,0,0-1.1.17-1.11.17-.15,0-.23-.05-.3-.13-.08-.1-.08-.22-.03-.33.05-.11.14-.17.28-.19l1.63-.25c.06,0,.09-.03.12-.07l.25-.34s-1.02,0-1.02,0c-.18,0-.3-.07-.35-.21-.07-.17.01-.29.1-.39l.68-.74h-.05c-.15-.02-.3-.04-.45-.05l-1.33,1.07c-.08.06-.16.1-.25.1-.09,0-.18-.04-.25-.12-.06-.07-.08-.14-.07-.22,0-.1.06-.19.15-.26l.83-.67c-.15-.02-.26-.03-.38-.03l-1.03.82c-.07.06-.15.09-.22.09-.04,0-.09,0-.13-.03-.12-.05-.19-.15-.2-.28,0-.15.08-.24.15-.3l.51-.41-.92-.1c-.11-.02-.19-.06-.25-.14-.05-.06-.07-.14-.06-.23.02-.18.15-.29.33-.29.28.02.51.05.74.08l.22.03-.43-.54c-.12-.16-.09-.35.05-.46.06-.05.13-.07.2-.07.1,0,.19.05.26.13l.81,1c.17.05.29.07.41.08l-.69-.86c-.11-.15-.09-.35.05-.46.06-.05.14-.08.21-.08.1,0,.19.04.25.13l1.06,1.32s.07.05.11.06c.13.02.27.03.42.05l-.52-.91c-.07-.13-.07-.25,0-.36.07-.09.16-.14.27-.14l1.11.24c-.03-.08-.07-.15-.09-.23-.05-.16-.15-.26-.33-.32-.3-.1-.6-.22-.89-.34l-.47-.18c-.11-.04-.22-.1-.26-.24-.04-.12,0-.24.08-.33.06-.06.14-.09.22-.09.04,0,.08,0,.13.02l1.03.4s-.12-.26-.17-.37l-1.19-.45c-.22-.09-.31-.25-.24-.44.05-.14.16-.21.29-.21.06,0,.12.01.18.04l.59.23-.24-.55c-.05-.11-.09-.2-.13-.29-.08-.18,0-.37.17-.45.04-.02.09-.03.13-.03.13,0,.24.08.3.21.13.28.25.56.38.85l.24-.62c.06-.15.18-.23.31-.23,0,0,.11.02.11.02.19.08.26.26.18.46l-.45,1.17s0,.08,0,.12c.03.09.08.18.12.28h0c.15-.36.28-.68.4-1,.06-.14.18-.22.32-.22.15,0,.28.1.3.23.02.07.01.16-.01.24-.2.52-.39,1.03-.6,1.54-.02.05-.02.1,0,.15l.17.38.52-.9c.09-.15.2-.18.28-.18.19.02.29.1.33.25l.31,1h0c.05-.08.09-.15.15-.21.11-.11.14-.23.1-.42-.07-.41-.13-.81-.2-1.22l-.04-.26c-.02-.1,0-.2.06-.27.05-.07.12-.11.21-.12,0,0,0,0,.01,0,.22,0,.34.12.36.3.06.35.11.71.17,1.06l.22-.31c-.07-.46-.14-.88-.2-1.29,0-.05-.01-.15.02-.23.04-.12.16-.19.29-.19.2.03.31.14.34.3l.1.66.55-.75c.07-.09.16-.14.27-.14.07,0,.13.02.2.07.15.11.18.3.07.46l-.55.75s.65-.1.66-.1c.25,0,.37.1.4.26.02.09,0,.18-.05.25-.06.08-.15.12-.26.14-.4.06-.8.13-1.21.19-.06,0-.09.03-.12.07-.05.08-.11.16-.17.24,0,0,1.06-.15,1.07-.15.24,0,.36.1.39.26.02.09,0,.17-.05.24-.05.08-.15.13-.25.14l-1.65.26c-.17.16-.25.27-.33.39h0s.45.01.45.01h.58c.17,0,.28.07.34.21.07.17-.02.29-.09.38l-.69.75h.02c.16.02.32.04.48.05l1.34-1.07c.08-.06.15-.09.23-.09.05,0,.1.01.14.04.11.06.17.15.18.26.01.11-.04.22-.14.3l-.84.68c.14.01.26.03.39.04l1-.81c.05-.04.13-.1.24-.1.05,0,.09.01.14.03.11.05.18.14.19.25.01.12-.04.23-.15.32l-.51.41c.28.03.91.1.91.1.2.03.33.17.32.35-.02.18-.16.3-.34.3l-.95-.1.42.53c.12.16.1.35-.05.48-.06.05-.13.07-.2.07-.1,0-.2-.05-.27-.14l-.81-1c-.18-.06-.29-.07-.41-.08.03.03.54.67.68.85.07.09.09.19.08.28-.02.09-.07.17-.16.22-.05.03-.11.04-.16.04-.1,0-.2-.05-.27-.15l-.8-.99-.08-.11c-.07-.09-.13-.18-.21-.23-.08-.04-.19-.05-.3-.05,0,0-.17-.01-.18-.01.04.08.52.9.52.9.1.17.05.3,0,.38-.06.09-.15.13-.26.13l-1.11-.23.2.45s1.58.61,1.58.61c.28.11.28.3.26.41-.04.15-.16.25-.31.25-.04,0-.09,0-.13-.02-.15-.06-1.02-.39-1.02-.39,0,0,.11.26.16.36l.24.09.99.38c.1.04.17.1.21.19.03.07.03.16,0,.23-.07.15-.17.21-.3.21-.05,0-.1,0-.15-.03l-.61-.24.37.83c.08.19.02.38-.16.46-.04.02-.09.03-.13.03ZM28.15,12.36c-.08.12-.16.23-.25.33-.05.06-.06.1-.03.18.07.2.13.4.2.61l.02.06.4-.69-.26-.6-.08.1ZM28.85,12.04c.05.1.09.2.12.3.06.2.17.29.37.31.15.02.3.05.46.09l.07.02-.4-.69c-.19-.02-.38-.04-.58-.07h-.06s.02.03.02.03ZM26.83,12.39c.08,0,.17,0,.25.01h.02c.19,0,.28-.06.36-.2.06-.11.13-.2.22-.31l.02-.02c-.23-.03-.43-.05-.64-.07l-.54.59h.32ZM29.54,11.41l.37-.4.17-.2h-.77s0-.07,0-.07l-.04.08-.38.51.65.07ZM27.11,11.13c.23.05.44.07.66.09l-.25-.56c-.22-.08-.39-.11-.56-.15l-.24-.05.39.67ZM28.47,9.73c-.09.16-.18.32-.27.46-.09.13-.09.23-.02.35.06.11.11.22.16.35l.03.07c.13-.18.25-.35.38-.52l-.24-.77-.03.06Z"/>
            <path class="cls-1" d="M25.99,6.13c.1,0,.19.06.24.17.13.29.27.59.39.88,0,0,0,.01,0,.02.01.02.02.04.04.09.07-.18.14-.35.2-.51.03-.08.06-.17.1-.25.05-.12.15-.19.25-.19.03,0,.06,0,.09.02.15.06.21.2.15.37-.15.39-.3.78-.45,1.17-.02.05-.02.11,0,.16.05.14.12.28.19.43.02-.04.03-.06.04-.08.14-.36.28-.71.42-1.07.05-.12.14-.18.25-.18,0,0,0,0,0,0,.11,0,.21.07.24.18.02.07,0,.14-.01.21-.19.51-.39,1.03-.59,1.54-.03.07-.03.13,0,.2.07.16.14.32.22.49.09-.16.17-.3.25-.44.12-.2.22-.39.33-.58.05-.09.12-.15.22-.15.01,0,.02,0,.04,0,.12.01.2.08.23.2.11.34.22.68.32,1.03,0,.02.02.05.04.09.08-.11.14-.22.23-.3.14-.14.15-.3.12-.48-.09-.49-.16-.98-.23-1.48-.03-.17.06-.3.22-.32.02,0,.03,0,.04,0,.13,0,.23.09.26.25.06.36.12.73.17,1.09,0,.04.01.07.03.13.11-.16.22-.3.32-.44.02-.02,0-.07,0-.1-.07-.41-.13-.82-.19-1.23,0-.07,0-.14.02-.2.04-.1.13-.15.22-.15.01,0,.03,0,.04,0,.12.02.21.11.23.24.04.24.07.47.11.7,0,.03.01.06.02.11.08-.1.14-.19.2-.27.15-.2.3-.4.44-.6.06-.08.13-.12.21-.12.05,0,.11.02.15.05.12.09.15.24.05.37-.21.29-.42.57-.64.88.05,0,.08,0,.1,0,.23-.03.46-.07.69-.1.02,0,.05,0,.07,0,.15,0,.25.08.27.21.03.16-.07.29-.26.31-.4.07-.81.13-1.21.19-.08.01-.13.04-.17.1-.08.12-.17.23-.27.37.05,0,.07,0,.1,0,.37-.06.74-.12,1.11-.17.02,0,.04,0,.06,0,.14,0,.25.08.27.21.03.15-.08.28-.25.31-.55.09-1.1.17-1.65.26-.04,0-.1.04-.13.08-.11.14-.22.29-.34.45.04,0,.07,0,.1,0,0,0,0,0,0,0,.16,0,.32,0,.48,0,.19,0,.38,0,.57,0,0,0,0,0,.01,0,.12,0,.22.05.27.17.05.12,0,.22-.08.31-.24.26-.48.52-.72.79-.01.01-.02.03-.05.06.22.02.42.05.63.06,0,0,0,0,0,0,.03,0,.06-.03.09-.05.43-.34.86-.69,1.29-1.03.06-.05.12-.08.19-.08.04,0,.07,0,.11.03.18.1.2.31.03.45-.3.24-.6.48-.9.72-.01.01-.03.03-.07.06.2.02.37.04.55.05,0,0,0,0,0,0,.02,0,.05-.03.08-.05.32-.26.65-.52.97-.78.06-.05.13-.09.2-.09.03,0,.07,0,.11.03.2.09.21.31.03.46l-.52.42s-.06.05-.11.09c.31.03.61.07.91.1.05,0,.11.01.16.02.17.02.27.14.26.28-.01.15-.12.24-.27.24-.01,0-.02,0-.03,0-.32-.03-.63-.07-.94-.1-.04,0-.07,0-.13-.01.15.19.28.35.42.52.04.04.07.09.11.13.1.13.08.28-.04.38-.05.04-.1.06-.15.06-.08,0-.15-.04-.21-.11-.27-.33-.54-.67-.81-1-.03-.03-.08-.06-.12-.07-.16-.02-.31-.04-.49-.06.07.09.12.16.17.22.2.25.41.5.6.75.11.14.08.32-.07.4-.04.02-.08.03-.13.03-.08,0-.16-.04-.22-.12-.27-.33-.53-.66-.8-.99-.1-.12-.18-.29-.31-.36-.13-.07-.31-.05-.47-.07-.05,0-.1-.01-.16-.02.07.12.13.24.2.35.13.22.25.44.39.66.06.1.07.21,0,.31-.05.07-.12.1-.21.1-.02,0-.05,0-.08,0-.34-.08-.68-.15-1.01-.22-.04,0-.08-.02-.14-.03.04.08.07.16.1.24.05.12.1.23.15.34.02.02.06.04.09.05.02,0,.04.02.07.03.49.19.98.38,1.46.57.18.07.25.18.22.33-.03.12-.13.2-.25.2-.03,0-.07,0-.1-.02-.22-.08-.44-.17-.66-.25-.14-.05-.27-.11-.41-.16-.03-.01-.06-.02-.1-.03.08.18.15.34.23.51,0,.02.05.03.07.04.28.11.57.22.85.33.11.04.22.09.34.13.16.06.23.2.18.33,0,0,0,.02,0,.02-.05.1-.13.15-.23.15-.04,0-.08,0-.13-.03-.25-.09-.5-.19-.77-.29.09.19.16.37.24.54.07.15.13.3.2.45.07.16.01.3-.13.37-.03.02-.07.02-.1.02-.1,0-.19-.06-.24-.18-.14-.32-.28-.64-.44-.99-.05.14-.1.26-.15.37-.05.13-.1.27-.15.4-.05.12-.15.19-.25.19-.03,0-.06,0-.09-.02-.15-.05-.21-.2-.15-.36.15-.39.3-.78.45-1.17.02-.05.01-.12,0-.18-.05-.14-.12-.27-.19-.43-.06.15-.11.27-.16.39-.1.25-.19.5-.29.75-.05.13-.14.2-.25.2-.03,0-.06,0-.09-.02-.15-.06-.21-.21-.14-.37.2-.52.4-1.03.6-1.54.03-.07.03-.13,0-.2-.07-.16-.14-.32-.22-.49-.09.16-.18.3-.26.44-.11.2-.22.39-.33.58-.05.08-.12.14-.22.14-.01,0-.02,0-.04,0-.12-.01-.19-.08-.23-.19-.11-.34-.22-.68-.33-1.03,0-.02-.02-.05-.04-.1-.09.12-.16.24-.25.34-.11.12-.13.24-.1.4.09.51.16,1.02.24,1.53.02.15-.04.26-.17.31-.03.01-.06.02-.09.02-.08,0-.16-.04-.21-.11-.03-.04-.05-.1-.05-.15-.06-.37-.11-.74-.17-1.11,0-.02,0-.05-.02-.1-.12.16-.22.3-.32.43-.02.03-.01.08,0,.11.06.41.12.81.19,1.21,0,.07.01.14,0,.2-.03.11-.13.17-.24.17-.01,0-.02,0-.03,0-.11-.02-.21-.11-.23-.23-.04-.24-.08-.49-.12-.74,0-.02,0-.04-.01-.08-.02.03-.05.05-.06.07-.19.26-.38.52-.57.79-.06.09-.14.13-.22.13-.05,0-.1-.02-.15-.05-.13-.09-.14-.24-.04-.39.21-.28.41-.56.62-.84v-.04c-.12.02-.22.05-.33.07-.16.02-.31.05-.47.07-.02,0-.03,0-.05,0-.14,0-.25-.08-.27-.21-.02-.15.07-.28.24-.31.4-.07.81-.13,1.21-.19.09-.01.15-.05.21-.12.07-.12.16-.22.26-.36-.07,0-.11.01-.15.02-.37.06-.73.11-1.1.17-.02,0-.04,0-.05,0-.08,0-.15-.04-.21-.11-.06-.08-.07-.17-.02-.26.04-.09.13-.14.23-.15.55-.08,1.09-.17,1.63-.25.07,0,.12-.03.16-.1.1-.14.21-.28.32-.44-.07,0-.12,0-.17,0-.33,0-.65,0-.98,0,0,0,0,0,0,0-.13,0-.23-.04-.28-.17-.06-.13,0-.22.09-.32l.71-.78s.02-.04.05-.06c-.22-.02-.42-.05-.62-.06,0,0,0,0,0,0-.03,0-.07.03-.09.05-.43.35-.86.69-1.28,1.03-.07.06-.14.08-.2.08-.07,0-.14-.03-.19-.09-.1-.12-.07-.27.07-.39.29-.24.58-.47.88-.71.02-.02.03-.03.07-.06-.19-.02-.36-.04-.53-.05,0,0,0,0,0,0-.03,0-.06.03-.09.05-.32.26-.65.53-.98.79-.06.05-.12.08-.18.08-.03,0-.07,0-.1-.02-.09-.04-.15-.11-.16-.22,0-.11.05-.18.13-.24.2-.16.41-.33.63-.51-.27-.03-.51-.05-.75-.08-.11-.01-.22-.02-.33-.03-.16-.02-.27-.14-.25-.29.02-.14.12-.23.27-.23.01,0,.03,0,.04,0,.31.03.63.07.94.1.03,0,.07,0,.13,0-.13-.16-.25-.31-.36-.45-.05-.07-.11-.14-.17-.21-.09-.13-.07-.28.04-.37.05-.04.1-.06.16-.06.08,0,.15.04.21.11.27.33.54.67.81,1,.03.04.08.06.12.07.16.02.31.04.5.06-.19-.24-.36-.45-.54-.67-.08-.11-.18-.21-.26-.32-.09-.12-.07-.28.04-.36.05-.04.11-.06.17-.06.07,0,.15.03.2.1.36.44.71.88,1.06,1.32.04.04.09.07.15.08.18.03.36.04.55.06-.15-.25-.28-.49-.42-.72-.06-.1-.12-.2-.17-.31-.06-.1-.06-.2,0-.29.06-.07.13-.11.21-.11.02,0,.05,0,.07,0,.38.08.76.17,1.16.25-.05-.12-.11-.23-.14-.34-.06-.19-.18-.3-.37-.36-.46-.16-.9-.34-1.35-.52-.1-.04-.18-.09-.22-.19-.03-.1,0-.19.07-.26.05-.05.11-.07.17-.07.03,0,.07,0,.1.02.36.14.72.28,1.07.41.03.01.05.02.11.04-.09-.19-.16-.35-.24-.51,0-.02-.05-.03-.08-.04-.38-.15-.77-.29-1.15-.44-.18-.07-.26-.2-.2-.35.04-.11.12-.17.23-.17.05,0,.1.01.16.03.21.08.42.16.64.24.03.01.06.02.1.04-.11-.25-.21-.47-.3-.7-.05-.1-.09-.19-.13-.29-.06-.15,0-.3.13-.36.03-.02.07-.02.1-.02M28.35,11.09c.16-.22.31-.42.45-.62.02-.02,0-.07,0-.1-.07-.21-.13-.42-.2-.63-.03-.07-.05-.15-.08-.24-.13.23-.24.45-.38.65-.1.14-.11.27-.03.42.09.16.15.33.23.52M27.87,11.3c-.11-.24-.2-.46-.3-.67-.02-.03-.06-.06-.1-.07-.26-.06-.53-.12-.8-.18-.03,0-.05,0-.09,0,.16.27.31.53.46.79.02.02.04.05.07.05.24.03.49.06.75.08M29.31,10.75s0,0,0,0c-.03,0-.07.01-.09.04-.15.19-.29.39-.45.61.27.03.51.06.76.08,0,0,0,0,0,0,.02,0,.06-.02.07-.04.12-.12.23-.25.35-.37.09-.1.17-.2.27-.31-.18,0-.36,0-.53,0-.13,0-.26,0-.39,0M26.46,12.46c.13,0,.25,0,.37,0,.08,0,.16,0,.24.01.03,0,.05,0,.07,0,.17,0,.28-.08.37-.24.08-.14.19-.27.3-.42-.27-.03-.52-.06-.76-.08,0,0,0,0,0,0-.02,0-.05.02-.06.04-.21.22-.41.45-.63.68.04,0,.07,0,.1,0M30.01,12.86c-.17-.29-.32-.56-.48-.82,0-.02-.03-.03-.05-.03-.25-.03-.5-.06-.76-.08.07.16.14.29.19.44.07.22.19.33.42.36.22.02.43.09.67.14M28.07,13.72c.17-.29.32-.56.48-.83.01-.02.01-.05,0-.07-.1-.22-.2-.45-.31-.69-.14.19-.26.36-.39.53-.07.08-.08.14-.04.24.09.26.17.53.26.82M25.99,5.99h0c-.05,0-.11.01-.16.03-.21.1-.29.31-.2.53.04.1.09.2.13.3l.15.34.03.07-.44-.17c-.07-.03-.14-.04-.21-.04-.17,0-.3.09-.36.25-.08.22.03.43.28.53l1.08.42.07.03s.01,0,.02,0c.03.06.06.12.08.18l-.32-.12-.55-.21c-.05-.02-.1-.03-.15-.03-.1,0-.19.04-.27.11-.11.11-.15.25-.1.4.05.18.22.24.29.28.15.06.3.12.46.18.3.12.6.24.91.34.16.05.24.13.28.27.01.04.03.08.04.11l-.16-.03-.74-.16s-.07-.01-.1-.01c-.13,0-.24.06-.32.16-.1.14-.1.29-.01.44l.09.15.09.15c.1.16.19.33.29.5-.1-.01-.19-.02-.29-.03-.02,0-.06-.02-.07-.04-.17-.21-.35-.44-.53-.66-.18-.22-.35-.44-.53-.65-.08-.1-.19-.15-.31-.15-.09,0-.18.03-.25.09-.17.13-.19.37-.06.55.06.08.12.15.18.23l.08.1.26.33.07.08c-.06,0-.11-.01-.17-.02,0,0-.03-.01-.04-.02l-.4-.5-.41-.5c-.08-.1-.2-.16-.31-.16-.09,0-.17.03-.24.09-.17.14-.2.37-.07.55l.08.1s.06.07.09.11c.05.07.11.14.16.2h-.09c-.22-.04-.44-.06-.66-.08-.02,0-.03,0-.05,0-.21,0-.37.14-.4.35-.01.1.01.19.07.27.07.09.17.15.29.16.09.01.17.02.26.03h.08c.14.02.28.04.42.05l-.21.17-.16.13s-.19.16-.18.36c0,.15.09.27.24.34.05.02.11.04.16.04.09,0,.18-.04.27-.11l.35-.28c.21-.17.42-.34.63-.51l.03-.02c.06,0,.12.01.19.02l-.26.21-.44.35c-.11.09-.17.2-.18.31,0,.1.02.2.09.27.08.09.19.14.3.14.1,0,.2-.04.29-.11.43-.34.85-.69,1.28-1.03.01,0,.02-.02.03-.02.11,0,.22.02.34.03l-.59.64c-.06.07-.21.23-.12.46.05.11.16.25.41.25.17,0,.33,0,.5,0,.13,0,.27,0,.4,0-.06.08-.11.15-.17.23-.02.03-.03.04-.07.04-.28.04-.55.08-.82.13-.27.04-.55.09-.82.13-.2.03-.29.14-.33.23-.07.14-.05.28.04.4.08.11.19.16.32.16.02,0,.05,0,.08,0l.55-.09.37-.06s-.05.07-.07.11c-.03.04-.05.05-.11.06-.41.06-.81.12-1.22.19-.12.02-.22.08-.28.17-.06.08-.09.19-.07.3.03.19.2.32.41.32.02,0,.05,0,.07,0l.24-.04.24-.04s.02,0,.02,0l-.44.6c-.08.11-.11.22-.09.33.02.1.07.19.16.25.07.05.15.08.23.08.13,0,.24-.07.33-.19l.26-.36.18-.25c.03.17.05.34.08.51.03.18.17.32.34.34,0,0,.04,0,.05,0,.17,0,.31-.1.37-.26.02-.07.03-.16.02-.26v-.06c-.07-.38-.13-.76-.19-1.15,0-.03,0-.04,0-.04.03-.04.07-.09.11-.15.03.2.06.39.09.58l.05.32c.01.08.04.15.07.2.07.11.19.17.32.17.05,0,.1,0,.14-.03.18-.07.28-.24.25-.45l-.06-.4c-.06-.38-.11-.75-.18-1.13-.02-.13,0-.2.07-.28.04-.05.08-.09.11-.14l.06.19c.07.23.14.45.22.68.05.16.17.27.34.29.02,0,.03,0,.05,0,.14,0,.26-.08.34-.21.08-.13.15-.26.23-.39l.11-.19c.04-.07.08-.14.12-.21.04.09.08.17.11.25.02.04.02.06,0,.1-.19.48-.37.96-.56,1.44l-.04.09c-.09.23,0,.46.22.54.05.02.09.03.14.03.16,0,.31-.11.38-.29.07-.17.14-.35.21-.53l.09-.23.02-.05.02-.05s.04.09.05.14c.01.03.01.07,0,.09-.07.19-.15.39-.22.58-.08.2-.15.39-.23.59-.04.11-.04.23,0,.33.04.09.12.17.23.2.04.02.09.03.13.03.16,0,.31-.11.38-.28.04-.09.07-.19.11-.28l.04-.12.03-.07.29.66c.09.19.22.29.38.29.06,0,.11-.01.16-.04.21-.09.29-.32.2-.54l-.1-.22-.1-.22-.1-.24.23.09.23.09c.06.02.12.03.18.03.16,0,.28-.08.35-.23,0,0,0-.02.01-.03h0c.04-.09.03-.2,0-.29-.04-.1-.13-.18-.25-.22l-.11-.04c-.08-.03-.16-.06-.23-.09-.19-.08-.39-.15-.59-.23l-.26-.1h0c-.03-.06-.06-.12-.09-.18l.21.08.22.09c.15.06.29.12.44.17.05.02.1.03.15.03.18,0,.33-.12.38-.3.02-.1.04-.35-.3-.49-.49-.19-.98-.38-1.46-.57-.01,0-.03-.02-.06-.03-.01,0-.02,0-.03-.01v-.02s-.13-.28-.13-.28l.31.07c.2.04.39.08.59.13.04,0,.07.01.11.01.13,0,.24-.05.31-.16.1-.14.11-.3.01-.46-.13-.22-.26-.44-.39-.66-.02-.04-.05-.08-.07-.12.02,0,.04,0,.06,0,.1,0,.2,0,.27.04.07.04.13.12.19.21.03.04.06.08.08.12l.39.48.42.51c.09.11.2.17.33.17.07,0,.13-.02.19-.05.11-.06.18-.16.2-.27.02-.11-.01-.23-.09-.34-.14-.18-.28-.36-.43-.53l-.15-.19c.06,0,.11.01.17.02l.03.02c.17.21.34.42.51.63l.3.37c.08.1.2.16.32.16.09,0,.17-.03.24-.08.18-.14.2-.38.06-.57-.03-.04-.07-.08-.1-.12l-.22-.28c.11.01.22.02.32.04.14.02.29.03.43.05,0,0,.04,0,.05,0,.22,0,.39-.15.41-.36.02-.22-.14-.4-.37-.43h-.08s-.07-.02-.07-.02c-.2-.02-.39-.04-.59-.06l.39-.31c.13-.1.19-.24.17-.38-.02-.13-.1-.24-.23-.3-.05-.03-.11-.04-.17-.04-.12,0-.22.07-.28.12-.32.26-.65.52-.97.78,0,0-.01,0-.02.01-.06,0-.13-.01-.19-.02l.28-.22.44-.35c.12-.1.18-.23.16-.36-.01-.13-.09-.24-.22-.31-.06-.03-.12-.04-.18-.04-.09,0-.18.04-.28.11-.43.34-.86.69-1.29,1.03,0,0-.02.01-.03.02-.11,0-.22-.02-.34-.03h0c.2-.22.4-.44.59-.65.05-.06.2-.23.1-.45-.07-.16-.21-.25-.39-.25-.2,0-.39,0-.58,0-.11,0-.22,0-.33,0,.06-.08.12-.16.18-.24.01-.01.03-.03.05-.03l.82-.13.83-.13c.13-.02.23-.08.3-.17.06-.08.08-.19.06-.29-.03-.19-.19-.33-.4-.33-.03,0-.05,0-.08,0-.3.04-.6.09-.9.14.03-.04.06-.08.08-.12.02-.03.03-.04.08-.05.41-.06.81-.12,1.21-.19.13-.02.23-.08.3-.17.06-.08.09-.19.07-.3-.03-.2-.19-.32-.41-.32-.03,0-.06,0-.09,0-.12.02-.24.04-.36.06l-.11.02.44-.61c.15-.2.11-.43-.07-.57-.07-.05-.15-.08-.23-.08-.12,0-.24.06-.32.17l-.41.57-.03.04h-.01s-.01-.08-.01-.08l-.06-.41c-.03-.18-.17-.32-.34-.35-.02,0-.04,0-.06,0-.16,0-.3.09-.35.24-.04.1-.03.21-.03.27.06.41.13.82.19,1.23,0,0,0,.01,0,.02-.04.05-.07.1-.11.16-.05-.3-.09-.6-.14-.9-.03-.22-.19-.36-.39-.36-.02,0-.04,0-.06,0-.11.02-.21.08-.27.16-.06.09-.08.19-.06.31l.05.3c.06.39.12.79.19,1.18.03.17.01.27-.08.37-.03.03-.06.07-.09.1l-.11-.35-.16-.51c-.06-.17-.18-.28-.35-.29-.02,0-.03,0-.05,0-.1,0-.24.04-.34.22l-.11.19c-.07.13-.15.26-.22.39-.04.07-.08.14-.12.21-.04-.09-.08-.17-.12-.26-.02-.04-.02-.06,0-.09.2-.52.4-1.03.6-1.54.02-.05.05-.17.02-.29-.04-.15-.19-.27-.36-.28h0c-.17,0-.32.11-.38.27-.11.29-.22.58-.34.86-.02-.05-.04-.1-.06-.14,0-.02,0-.05,0-.07.08-.2.15-.4.23-.6.07-.19.15-.38.22-.57.09-.23,0-.45-.22-.54-.05-.02-.09-.03-.14-.03-.16,0-.31.11-.37.28-.02.05-.04.11-.07.17l-.03.08c-.03.07-.06.14-.08.22-.1-.23-.2-.46-.31-.7-.07-.15-.21-.25-.36-.25h0ZM28.39,10.82c-.05-.11-.09-.21-.15-.31-.06-.1-.05-.18.02-.28.08-.12.16-.25.23-.39l.08.26.1.31s0,0,0,0c-.09.13-.19.26-.29.4h0ZM27.16,11.08c-.1-.17-.2-.35-.31-.53l.1.02c.16.04.33.07.49.11.07.12.12.25.18.38.01.03.02.05.03.08-.17-.02-.33-.04-.49-.06h0ZM29.33,10.87s0,0,0,0c0,0,0,0,0,0h0ZM29.31,10.89h.39s.23,0,.23,0l-.07.08-.06.06c-.09.1-.19.21-.29.31-.12-.01-.25-.03-.38-.04h-.12s.01-.03.01-.03c.1-.13.19-.26.28-.38h0ZM25.78,11.73s0,0,0,0c0,0,0,0,0,0h0ZM26.67,12.32l.06-.07c.12-.13.23-.26.35-.38.16.01.32.03.49.05-.06.08-.12.16-.17.24-.08.14-.16.17-.26.17-.02,0-.04,0-.06,0-.09,0-.17-.01-.26-.01-.05,0-.11,0-.16,0h0ZM29.73,12.66c-.13-.03-.25-.06-.39-.07-.17-.02-.26-.09-.31-.26-.03-.08-.06-.16-.1-.24.17.02.33.03.49.05.1.18.2.35.31.52h0ZM28.11,13.38c-.06-.18-.11-.36-.17-.53-.02-.05-.01-.07.02-.11.08-.11.16-.21.23-.31,0-.01.02-.02.03-.04.07.16.14.3.2.45-.09.16-.18.31-.27.48l-.03.05h0Z"/>
          </g>
          <g>
            <path class="cls-13" d="M30.39,16.86c-.13,0-.24-.08-.3-.22l-.37-.84-.24.62c-.06.15-.18.24-.31.24,0,0-.1-.02-.11-.02-.08-.03-.15-.09-.19-.17-.04-.08-.04-.18,0-.28l.45-1.17s0-.09,0-.13c-.03-.1-.08-.19-.12-.29,0,0-.32.83-.39,1-.06.15-.17.24-.31.24,0,0-.11-.02-.11-.02-.18-.07-.26-.26-.18-.46.2-.52.4-1.03.6-1.54.02-.06.02-.09,0-.15-.05-.11-.17-.38-.17-.38l-.28.48c-.08.15-.16.29-.25.43-.06.11-.16.17-.28.17-.19-.02-.29-.1-.33-.25l-.32-1-.02.03c-.05.08-.1.15-.16.21-.09.09-.11.19-.08.34.07.37.12.74.18,1.11l.06.42c.03.18-.05.32-.21.38,0,0-.11.02-.12.02-.11,0-.21-.05-.26-.14-.03-.04-.05-.1-.06-.17l-.17-1.05h0c-.08.11-.15.21-.22.3l.19,1.27c.01.09,0,.17-.01.23-.04.13-.16.21-.3.21-.19-.02-.3-.14-.33-.29-.04-.2-.11-.66-.11-.66l-.54.73c-.07.1-.17.16-.28.16-.07,0-.13-.02-.19-.07-.07-.05-.12-.12-.13-.2-.01-.09.01-.19.08-.28l.55-.74-.19.04s-.48.07-.49.07c-.22,0-.36-.11-.39-.26-.01-.09,0-.18.06-.25.05-.07.14-.12.24-.14.4-.06.81-.13,1.21-.19.08-.01.12-.04.16-.09.05-.08.1-.15.17-.23,0,0-1.1.17-1.11.17-.15,0-.23-.05-.3-.13-.07-.1-.08-.22-.03-.33.05-.11.14-.17.28-.19l1.63-.25c.06,0,.09-.03.12-.07.07-.1.25-.34.25-.34-.03,0-1.02,0-1.02,0-.18,0-.3-.07-.35-.21-.07-.17.01-.29.1-.39l.68-.74h-.07c-.15-.02-.29-.04-.43-.05l-1.33,1.07c-.08.06-.16.1-.25.1-.09,0-.18-.04-.25-.12-.06-.07-.08-.14-.07-.22,0-.1.06-.19.15-.26l.83-.67c-.16-.02-.27-.03-.38-.04l-.62.49-.42.33c-.07.06-.15.09-.23.09-.04,0-.09,0-.13-.03-.12-.05-.19-.15-.2-.28,0-.15.08-.24.15-.3l.5-.41-.92-.1c-.2-.03-.33-.18-.31-.37.02-.18.15-.29.33-.29.27.02.49.05.72.08l.24.03-.43-.54c-.12-.16-.09-.35.05-.46.06-.05.13-.07.2-.07.1,0,.19.05.26.13l.81,1c.16.05.29.07.41.08,0,0-.63-.78-.69-.86-.11-.15-.09-.35.05-.46.07-.05.14-.08.21-.08.1,0,.19.04.25.13l1.06,1.32s.07.05.11.06c.12.02.24.03.37.04h.05s-.53-.91-.53-.91c-.07-.13-.07-.25,0-.36.07-.09.16-.14.27-.14l1.11.24c-.03-.08-.07-.15-.09-.23-.05-.16-.15-.26-.33-.32-.3-.1-.59-.22-.89-.34l-.47-.18c-.11-.04-.21-.1-.25-.24-.04-.12,0-.24.08-.33.06-.06.14-.1.22-.1.04,0,.08,0,.12.02l1.03.4-.17-.37-1.19-.45c-.22-.09-.31-.25-.24-.44.05-.14.16-.21.29-.21.06,0,.12.01.18.04l.59.23-.24-.55c-.06-.13-.1-.21-.13-.29-.08-.18,0-.37.17-.45.04-.02.09-.03.13-.03.13,0,.24.08.3.21.13.28.25.56.38.84l.24-.62c.06-.15.18-.23.31-.23,0,0,.11.02.11.02.19.07.26.26.19.46l-.45,1.17s-.01.08,0,.12c.04.09.08.19.12.28l.4-1c.05-.14.18-.22.31-.22.15,0,.28.1.31.23.02.07.01.16-.01.24-.18.48-.37.96-.55,1.43l-.04.11c-.02.05-.02.1,0,.15l.17.37.52-.91c.08-.15.2-.18.28-.18.19.02.29.1.34.25l.31,1h0c.05-.08.09-.15.15-.21.11-.11.14-.23.1-.42-.07-.38-.13-.76-.18-1.14l-.05-.34c-.03-.21.08-.37.27-.4,0,0,0,0,.01,0,.21,0,.34.12.37.3l.17,1.06.22-.31s-.14-.93-.2-1.29c-.01-.08,0-.17.02-.23.04-.12.16-.19.29-.19.2.03.31.14.33.3l.1.66.55-.75c.07-.09.16-.14.27-.14.07,0,.14.02.2.07.07.05.12.13.13.21.01.08,0,.17-.07.25l-.55.75s.65-.1.66-.1c.25,0,.37.1.4.26.02.1,0,.18-.06.25-.06.08-.15.12-.26.14-.4.06-.8.13-1.21.19-.06,0-.09.03-.12.07-.05.08-.11.16-.17.24,0,0,1.06-.15,1.07-.15.24,0,.36.1.39.26.02.09,0,.17-.05.24-.05.08-.15.13-.25.15l-1.65.26c-.17.16-.25.27-.34.39h0s.45.01.45.01h.58c.17,0,.28.07.34.21.07.17-.02.29-.09.38l-.69.75h.02c.17.02.32.04.48.05l1.34-1.07c.08-.06.15-.1.23-.1.05,0,.1.01.14.04.11.06.17.15.19.26.01.11-.04.22-.14.3l-.84.68c.14.01.26.03.39.04l1-.81c.06-.05.14-.11.24-.11.05,0,.09.01.14.03.11.05.18.14.19.25.01.12-.04.23-.15.32l-.51.41c.28.03.91.1.91.1.2.03.33.17.32.35-.02.18-.15.3-.34.3l-.95-.1.42.53c.12.16.1.35-.05.48-.06.05-.12.07-.2.07-.1,0-.2-.05-.27-.14l-.81-1c-.18-.06-.29-.07-.4-.08h0s.55.69.68.85c.07.09.09.19.08.28-.02.09-.08.17-.16.22-.05.03-.11.04-.16.04-.1,0-.2-.05-.27-.15l-.8-.99-.08-.12c-.07-.09-.13-.18-.21-.23-.08-.04-.19-.05-.3-.05-.05,0-.17-.01-.18-.01.04.08.52.9.52.9.1.17.05.3,0,.38-.06.09-.15.13-.26.13l-.64-.13-.48-.1.2.45s1.1.42,1.58.61c.28.11.28.3.26.4-.04.15-.16.25-.31.25-.04,0-.09,0-.13-.02-.15-.06-1.02-.4-1.02-.4,0,0,.11.26.16.36l.3.11c.19.08.92.36.92.36.1.04.17.1.21.19.03.07.04.16,0,.24-.07.15-.17.21-.3.21-.05,0-.1,0-.15-.03l-.61-.24.37.83c.08.19.02.38-.16.46-.04.02-.09.03-.13.03ZM27.7,12.4c-.05.06-.06.1-.03.18.07.19.12.37.19.57l.03.1.4-.69-.26-.6s-.24.33-.32.44ZM28.64,11.73c.05.11.1.21.13.31.06.2.17.29.37.31.15.02.3.05.45.09l.08.02-.4-.69c-.19-.02-.38-.04-.58-.06h-.06s.01.02.01.02ZM26.62,12.1c.08,0,.17,0,.25.01h.02c.19,0,.28-.06.36-.2.06-.1.13-.2.21-.3l.02-.03c-.23-.03-.43-.05-.64-.07l-.54.59h.32ZM29.34,11.12l.54-.59h-.77s0-.07,0-.07l-.04.08-.38.51.65.07ZM26.9,10.83c.23.04.44.07.66.09,0,0-.19-.44-.25-.56-.22-.08-.39-.11-.55-.15l-.25-.05.39.68ZM28.28,9.41c-.09.17-.18.33-.28.48-.09.13-.09.23-.02.35.06.11.11.23.17.36l.02.06c.13-.18.26-.35.38-.52l-.24-.77-.02.04Z"/>
            <path class="cls-1" d="M25.79,5.83c.1,0,.19.06.24.17.13.29.27.59.39.88,0,0,0,.01,0,.02.01.02.02.04.04.09.07-.18.14-.35.2-.51.03-.08.06-.17.1-.25.05-.12.15-.19.25-.19.03,0,.06,0,.09.02.15.06.21.2.15.37-.15.39-.3.78-.45,1.17-.02.05-.02.11,0,.16.05.14.12.28.19.43.02-.04.03-.06.04-.08.14-.36.28-.71.42-1.07.05-.12.14-.18.25-.18,0,0,0,0,0,0,.11,0,.21.07.24.18.02.07,0,.14-.01.21-.19.51-.39,1.03-.59,1.54-.03.07-.03.13,0,.2.07.16.14.32.22.49.09-.16.17-.3.25-.44.12-.2.22-.39.33-.58.05-.09.12-.15.22-.15.01,0,.02,0,.04,0,.12.01.2.08.23.2.11.34.22.68.32,1.03,0,.02.02.05.04.09.08-.11.14-.22.23-.3.14-.14.15-.3.12-.48-.09-.49-.16-.98-.23-1.48-.03-.17.06-.3.22-.32.02,0,.03,0,.04,0,.13,0,.23.09.26.25.06.36.12.73.17,1.09,0,.04.01.07.03.13.11-.16.22-.3.32-.44.02-.02,0-.07,0-.1-.07-.41-.13-.82-.19-1.23,0-.07,0-.14.02-.2.04-.1.13-.15.22-.15.01,0,.03,0,.04,0,.12.02.21.11.23.24.04.24.07.47.11.7,0,.03.01.06.02.11.08-.1.14-.19.2-.27.15-.2.3-.4.44-.6.06-.08.13-.12.21-.12.05,0,.11.02.15.05.12.09.15.24.05.37-.21.29-.42.57-.64.88.05,0,.08,0,.1,0,.23-.03.46-.07.69-.1.02,0,.05,0,.07,0,.15,0,.25.08.27.21.03.16-.07.29-.26.31-.4.07-.81.13-1.21.19-.08.01-.13.04-.17.1-.08.12-.17.23-.27.37.05,0,.07,0,.1,0,.37-.06.74-.12,1.11-.17.02,0,.04,0,.06,0,.14,0,.25.08.27.21.03.15-.08.28-.25.31-.55.09-1.1.17-1.65.26-.04,0-.1.04-.13.08-.11.14-.22.29-.34.45.04,0,.07,0,.1,0,0,0,0,0,0,0,.16,0,.32,0,.48,0,.19,0,.38,0,.57,0,0,0,0,0,.01,0,.12,0,.22.05.27.17.05.12,0,.22-.08.31-.24.26-.48.52-.72.79-.01.01-.02.03-.05.06.22.02.42.05.63.06,0,0,0,0,0,0,.03,0,.06-.03.09-.05.43-.34.86-.69,1.29-1.03.06-.05.12-.08.19-.08.04,0,.07,0,.11.03.18.1.2.31.03.45-.3.24-.6.48-.9.72-.01.01-.03.03-.07.06.2.02.37.04.55.05,0,0,0,0,0,0,.02,0,.05-.03.08-.05.32-.26.65-.52.97-.78.06-.05.13-.09.2-.09.03,0,.07,0,.11.03.2.09.21.31.03.46-.17.14-.35.28-.52.42-.03.03-.06.05-.11.09.31.03.61.07.91.1.05,0,.11.01.16.02.17.02.27.14.26.28-.01.15-.12.24-.27.24-.01,0-.02,0-.03,0-.32-.03-.63-.07-.94-.1-.04,0-.07,0-.13-.01.15.19.28.35.42.52.04.04.07.09.11.13.1.13.08.28-.04.38-.05.04-.1.06-.15.06-.08,0-.15-.04-.21-.11-.27-.33-.54-.67-.81-1-.03-.03-.08-.06-.12-.07-.16-.02-.31-.04-.49-.06.07.09.12.16.17.22.2.25.41.5.6.75.11.14.08.32-.07.4-.04.02-.08.03-.13.03-.08,0-.16-.04-.22-.12-.27-.33-.53-.66-.8-.99-.1-.12-.18-.29-.31-.36-.13-.07-.31-.05-.47-.07-.05,0-.1-.01-.16-.02.07.12.13.24.2.35.13.22.25.44.39.66.06.1.07.21,0,.31-.05.07-.12.1-.21.1-.02,0-.05,0-.08,0-.34-.08-.68-.15-1.01-.22-.04,0-.08-.02-.14-.03.04.08.07.16.1.24.05.12.1.23.15.34.02.02.06.04.09.05.02,0,.04.02.07.03.49.19.98.38,1.46.57.18.07.25.18.22.33-.03.12-.13.2-.25.2-.03,0-.07,0-.1-.02-.22-.08-.44-.17-.66-.25-.14-.05-.27-.11-.41-.16-.03-.01-.05-.02-.1-.03.08.18.15.34.23.51,0,.02.05.03.07.04.28.11.57.22.85.33.11.04.22.09.34.13.16.06.23.2.18.33,0,0,0,.02,0,.02-.05.1-.13.15-.23.15-.04,0-.08,0-.13-.03-.25-.09-.5-.19-.77-.29.09.19.16.37.24.54.07.15.13.3.2.45.07.16.01.3-.13.37-.03.02-.07.02-.1.02-.1,0-.19-.06-.24-.18-.14-.32-.28-.64-.44-.99-.05.14-.1.26-.15.37-.05.13-.1.27-.15.4-.05.12-.15.19-.25.19-.03,0-.06,0-.09-.02-.15-.05-.21-.2-.15-.36.15-.39.3-.78.45-1.17.02-.05.01-.12,0-.18-.05-.14-.12-.27-.19-.43-.06.15-.11.27-.16.39-.1.25-.19.5-.29.75-.05.13-.14.2-.25.2-.03,0-.06,0-.09-.02-.15-.06-.21-.21-.14-.37.2-.52.4-1.03.6-1.54.03-.07.03-.13,0-.2-.07-.16-.14-.32-.22-.49-.09.16-.18.3-.26.44-.11.2-.22.39-.33.58-.05.08-.12.14-.22.14-.01,0-.02,0-.04,0-.12-.01-.19-.08-.23-.19-.11-.34-.22-.68-.33-1.03,0-.02-.02-.05-.04-.1-.09.12-.16.24-.25.34-.11.12-.13.24-.1.4.09.51.16,1.02.24,1.53.02.15-.04.26-.17.31-.03.01-.06.02-.09.02-.08,0-.16-.04-.21-.11-.03-.04-.05-.1-.05-.15-.06-.37-.11-.74-.17-1.11,0-.02,0-.05-.02-.1-.12.16-.22.3-.32.43-.02.03-.01.08,0,.11.06.41.12.81.19,1.21,0,.07.01.14,0,.2-.03.11-.13.17-.24.17-.01,0-.02,0-.03,0-.11-.02-.21-.11-.23-.23-.04-.24-.08-.49-.12-.74,0-.02,0-.04-.01-.08-.02.03-.05.05-.06.07-.19.26-.38.52-.57.79-.06.09-.14.13-.22.13-.05,0-.1-.02-.15-.05-.13-.09-.14-.24-.04-.39.21-.28.41-.56.62-.84v-.04c-.12.02-.22.05-.33.07-.16.02-.31.05-.47.07-.02,0-.03,0-.05,0-.14,0-.25-.08-.27-.21-.02-.15.07-.28.24-.31.4-.07.81-.13,1.21-.19.09-.01.15-.05.21-.12.07-.12.16-.22.26-.36-.07,0-.11.01-.15.02-.37.06-.73.11-1.1.17-.02,0-.04,0-.05,0-.08,0-.15-.04-.21-.11-.06-.08-.07-.17-.02-.26.04-.09.13-.14.23-.15.55-.08,1.09-.17,1.63-.25.07,0,.12-.03.16-.1.1-.14.21-.28.32-.44-.07,0-.12,0-.17,0-.33,0-.65,0-.98,0,0,0,0,0,0,0-.13,0-.23-.04-.28-.17-.06-.13,0-.22.09-.32.24-.26.48-.52.71-.78.01-.02.02-.04.05-.06-.22-.02-.42-.05-.62-.06,0,0,0,0,0,0-.03,0-.07.03-.09.05-.43.35-.86.69-1.28,1.03-.07.06-.14.08-.2.08-.07,0-.14-.03-.19-.09-.1-.12-.07-.27.07-.39.29-.24.58-.47.88-.71.02-.02.03-.03.07-.06-.19-.02-.36-.04-.53-.05,0,0,0,0,0,0-.03,0-.06.03-.09.05-.33.26-.65.53-.98.79-.06.05-.12.08-.18.08-.03,0-.07,0-.1-.02-.09-.04-.15-.11-.16-.22,0-.11.05-.18.13-.24.2-.16.41-.33.63-.51-.27-.03-.51-.05-.75-.08-.11-.01-.22-.02-.33-.03-.16-.02-.27-.14-.25-.29.02-.14.12-.23.27-.23.01,0,.03,0,.04,0,.31.03.63.07.94.1.03,0,.07,0,.13,0-.13-.16-.25-.31-.36-.45-.05-.07-.11-.14-.17-.21-.09-.13-.07-.28.04-.37.05-.04.1-.06.16-.06.08,0,.15.04.21.11.27.33.54.67.81,1,.03.04.08.06.12.07.16.02.31.04.5.06-.19-.24-.36-.45-.54-.67-.08-.11-.18-.21-.26-.32-.09-.12-.07-.28.04-.36.05-.04.11-.06.17-.06.07,0,.15.03.2.1.36.44.71.88,1.06,1.32.04.04.09.07.15.08.18.03.36.04.55.06-.15-.25-.28-.49-.42-.72-.06-.1-.12-.2-.17-.31-.06-.1-.06-.2,0-.29.06-.07.13-.11.21-.11.02,0,.05,0,.07,0,.38.08.76.17,1.16.25-.05-.12-.11-.23-.14-.34-.06-.19-.18-.3-.37-.36-.46-.16-.9-.34-1.35-.52-.1-.04-.18-.09-.22-.19-.03-.1,0-.19.07-.26.05-.05.11-.07.17-.07.03,0,.07,0,.1.02.36.14.72.28,1.07.41.03.01.05.02.11.04-.09-.19-.16-.35-.24-.51,0-.02-.05-.03-.08-.04-.38-.15-.77-.29-1.15-.44-.18-.07-.26-.2-.2-.35.04-.11.12-.17.23-.17.05,0,.1.01.16.03.21.08.42.16.64.24.03.01.06.02.1.04-.11-.25-.21-.47-.3-.7-.05-.1-.09-.19-.13-.29-.06-.15,0-.3.13-.36.03-.02.07-.02.1-.02M28.15,10.8c.16-.22.31-.42.45-.62.02-.02,0-.07,0-.1-.07-.21-.13-.42-.2-.63-.03-.07-.05-.15-.08-.24-.13.23-.24.45-.38.65-.1.14-.11.27-.03.42.09.16.15.33.23.52M27.67,11c-.11-.24-.2-.46-.3-.67-.02-.03-.06-.06-.1-.07-.26-.06-.53-.12-.8-.18-.03,0-.05,0-.09,0,.16.27.31.53.46.79.02.02.04.05.07.05.24.03.49.06.75.08M29.1,10.46s0,0,0,0c-.03,0-.07.01-.09.04-.15.19-.29.39-.45.61.27.03.51.06.76.08h0s.06-.02.07-.04c.12-.12.23-.25.35-.37.09-.1.17-.2.27-.31-.18,0-.36,0-.53,0-.13,0-.26,0-.39,0M26.25,12.17c.13,0,.25,0,.37,0,.08,0,.16,0,.24.01.03,0,.05,0,.07,0,.17,0,.28-.08.37-.24.08-.14.19-.27.3-.42-.27-.03-.52-.06-.76-.08,0,0,0,0,0,0-.02,0-.05.02-.06.04-.21.22-.41.45-.63.68.04,0,.07,0,.1,0M29.8,12.56c-.17-.29-.32-.56-.48-.82,0-.02-.03-.03-.05-.03-.25-.03-.5-.06-.76-.08.07.16.14.29.19.44.07.22.19.33.42.36.22.02.43.09.67.14M27.86,13.42c.17-.29.32-.56.48-.83.01-.02.01-.05,0-.07-.1-.22-.2-.45-.31-.69-.14.19-.26.36-.39.53-.07.08-.08.14-.04.24.09.26.17.53.26.82M25.79,5.7h0c-.05,0-.11.01-.16.03-.21.1-.29.31-.2.53.04.1.09.2.13.3l.14.33.03.07-.44-.17c-.07-.03-.14-.04-.21-.04-.17,0-.3.09-.36.25-.08.22.03.43.28.53l1.08.42.07.03s.01,0,.02,0c.03.06.06.12.08.18l-.34-.13-.54-.21c-.05-.02-.1-.03-.15-.03-.1,0-.19.04-.27.11-.11.11-.15.25-.1.4.05.18.22.24.29.28.15.06.3.12.46.18.3.12.6.24.91.34.16.05.24.13.28.27.01.04.03.08.04.11l-.16-.03-.74-.16s-.07-.01-.1-.01c-.13,0-.24.06-.32.16-.09.13-.1.29-.01.44l.09.16.08.15c.1.16.19.33.29.5-.1-.01-.19-.02-.29-.03-.02,0-.06-.02-.07-.04-.17-.21-.35-.43-.53-.65-.18-.22-.35-.44-.53-.66-.08-.1-.19-.15-.31-.15-.09,0-.18.03-.25.09-.17.13-.19.37-.06.55.06.08.12.15.18.23l.08.1.26.33.07.09c-.06,0-.11-.01-.17-.02,0,0-.03-.01-.04-.02l-.4-.5-.41-.5c-.08-.1-.2-.16-.31-.16-.09,0-.17.03-.24.09-.17.14-.2.37-.07.56l.08.1s.06.07.09.11c.05.07.11.14.16.2h-.09c-.22-.04-.44-.06-.66-.08-.02,0-.03,0-.05,0-.21,0-.37.14-.4.35-.01.1.01.19.07.27.07.09.17.15.29.16.09.01.17.02.26.03h.08c.14.02.28.04.42.05l-.21.17-.16.13s-.19.16-.18.36c0,.15.09.27.24.34.05.02.11.04.16.04.09,0,.18-.04.27-.11l.35-.28c.21-.17.42-.34.62-.5l.03-.02c.06,0,.12.01.19.02l-.27.22-.43.35c-.11.09-.17.2-.18.31,0,.1.02.2.09.27.08.09.19.14.3.14.1,0,.2-.04.29-.11.42-.34.84-.68,1.27-1.02l-.06-.13.08.11s.01,0,.02-.01c.11,0,.22.02.34.03l-.32.35-.27.3c-.06.07-.21.23-.12.46.05.11.16.25.41.25.17,0,.33,0,.5,0,.13,0,.27,0,.4,0-.06.08-.11.15-.17.23-.02.03-.03.04-.07.04-.28.04-.55.08-.82.13-.27.04-.55.09-.82.13-.2.03-.29.14-.33.23-.07.14-.05.28.04.4.08.11.19.16.32.16.02,0,.05,0,.08,0l.53-.08.38-.06s-.05.07-.07.11c-.03.04-.05.05-.11.06-.41.06-.81.12-1.22.19-.12.02-.22.08-.28.17-.06.08-.09.19-.07.3.03.19.2.32.41.32.02,0,.05,0,.07,0l.12-.02.36-.06s.02,0,.02,0l-.32.43-.12.17c-.08.11-.11.22-.09.33.02.1.07.19.16.25.07.05.15.08.23.08.13,0,.24-.07.33-.19l.28-.39.16-.21c.03.17.05.34.08.51.03.18.17.32.34.34,0,0,.04,0,.05,0,.17,0,.31-.1.37-.26.02-.07.03-.16.02-.26-.06-.4-.13-.81-.19-1.21,0-.03,0-.04,0-.04.03-.04.07-.09.11-.15.03.19.06.37.09.55l.05.34c.01.08.04.15.07.2.07.11.19.17.32.17.05,0,.1,0,.14-.03.18-.07.28-.24.25-.45l-.06-.4c-.06-.38-.11-.76-.18-1.13-.02-.13,0-.2.07-.28.04-.05.08-.09.11-.14l.06.18c.07.23.15.46.22.69.05.16.17.27.34.29.02,0,.03,0,.05,0,.14,0,.26-.08.34-.21.08-.13.15-.26.23-.39l.11-.19c.04-.07.08-.14.12-.21.04.09.08.17.11.25.02.04.02.06,0,.1-.19.48-.37.96-.56,1.44l-.04.09c-.09.23,0,.46.22.54.05.02.09.03.14.03.16,0,.31-.11.38-.29.07-.17.14-.35.2-.52l.09-.24v-.04s.04-.06.04-.06c.02.05.04.09.05.14.01.03.01.07,0,.09-.07.19-.15.39-.22.58-.08.2-.15.39-.23.59-.04.11-.04.23,0,.33.04.09.12.17.23.2.04.02.09.03.13.03.16,0,.31-.11.38-.28.04-.09.07-.19.11-.28l.04-.12.03-.07.3.68c.08.17.21.27.37.27.06,0,.11-.01.16-.04.21-.09.29-.32.2-.54l-.1-.22-.1-.22-.1-.24.23.09.23.09c.06.02.12.03.18.03.16,0,.28-.08.35-.23,0,0,0-.02.01-.03h0c.04-.09.03-.2,0-.29-.04-.1-.13-.18-.25-.22l-.11-.04c-.08-.03-.16-.06-.23-.09-.19-.08-.39-.15-.59-.23l-.26-.1h0c-.03-.06-.06-.12-.09-.18l.21.08.22.09c.15.06.29.11.44.17.05.02.1.03.15.03.18,0,.33-.12.38-.3.02-.1.04-.35-.3-.49-.49-.19-.98-.38-1.46-.57,0,0-.03-.02-.06-.02-.01,0-.03,0-.03-.01l-.13-.3.31.07c.2.04.39.08.59.13.04,0,.07.01.11.01.13,0,.24-.05.31-.16.1-.14.11-.3.01-.46-.13-.22-.26-.44-.39-.66-.02-.04-.05-.08-.07-.12.02,0,.04,0,.06,0,.1,0,.2,0,.27.04.07.04.13.12.19.21.03.04.06.08.08.12l.4.5.4.5c.09.11.2.17.33.17.07,0,.13-.02.19-.05.11-.06.18-.16.2-.27.02-.11-.01-.23-.09-.34-.14-.18-.29-.36-.43-.54l-.15-.18c.06,0,.11.01.17.02l.03.02c.17.21.34.42.51.63l.3.37c.08.1.2.16.32.16.09,0,.17-.03.24-.08.18-.14.2-.38.06-.57-.03-.04-.07-.08-.1-.12l-.22-.28c.11.01.22.02.32.03.14.02.29.03.43.05,0,0,.04,0,.05,0,.22,0,.39-.15.41-.36.02-.22-.14-.4-.37-.43h-.08s-.07-.02-.07-.02c-.2-.02-.39-.04-.59-.06l.39-.31c.13-.1.19-.24.17-.38-.02-.13-.1-.24-.23-.3-.05-.03-.11-.04-.17-.04-.12,0-.22.07-.28.12l-.12.09c-.28.23-.57.46-.85.69,0,0-.01,0-.02.01-.06,0-.13-.01-.19-.02l.26-.21.46-.37c.12-.1.18-.23.16-.36-.01-.13-.09-.24-.22-.31-.06-.03-.12-.04-.18-.04-.09,0-.18.04-.28.11-.43.34-.86.69-1.29,1.03,0,0-.02.01-.03.02-.11,0-.22-.02-.34-.03h0c.2-.22.4-.44.59-.65.05-.06.2-.23.1-.45-.07-.16-.21-.25-.39-.25-.2,0-.39,0-.58,0-.11,0-.22,0-.33,0,.06-.08.12-.16.18-.24.01-.01.03-.03.05-.03l.82-.13.83-.13c.13-.02.23-.08.3-.17.06-.08.08-.19.06-.29-.03-.19-.19-.33-.4-.33-.03,0-.05,0-.08,0-.3.04-.6.09-.9.14.03-.04.06-.08.08-.12.02-.03.03-.04.08-.05.41-.06.81-.12,1.21-.19.13-.02.23-.08.3-.17.06-.08.09-.19.07-.3-.03-.2-.19-.32-.41-.32-.03,0-.06,0-.09,0-.12.02-.24.04-.36.06l-.11.02.3-.42.15-.2c.14-.19.1-.42-.08-.55-.07-.05-.15-.08-.23-.08-.12,0-.24.06-.32.17l-.37.5-.08.11h-.01s-.02-.09-.02-.09l-.06-.4c-.03-.18-.17-.32-.34-.35-.02,0-.04,0-.06,0-.16,0-.3.09-.35.24-.04.1-.03.21-.03.27.06.4.12.81.19,1.21,0,.02,0,.04,0,.05-.04.05-.07.1-.11.16-.05-.3-.09-.6-.14-.9-.03-.22-.19-.36-.39-.36-.02,0-.04,0-.06,0-.11.02-.21.08-.27.16-.06.09-.08.19-.06.31l.04.29c.06.4.12.8.19,1.19.03.17.01.27-.08.37-.03.03-.06.07-.09.1l-.11-.35-.16-.51c-.06-.17-.18-.28-.35-.29-.02,0-.03,0-.05,0-.1,0-.24.04-.34.22l-.11.19c-.07.13-.15.26-.22.39-.04.07-.08.14-.12.21-.04-.09-.08-.17-.12-.26-.02-.04-.02-.06,0-.09.2-.52.4-1.03.6-1.54.02-.05.05-.17.02-.29-.04-.15-.19-.27-.36-.28h0c-.17,0-.32.11-.38.27-.11.29-.22.58-.34.86-.02-.05-.04-.1-.06-.14,0-.02,0-.05,0-.07.07-.2.15-.4.23-.6.07-.19.15-.38.22-.57.09-.23,0-.45-.22-.54-.05-.02-.09-.03-.14-.03-.16,0-.31.11-.37.28-.02.05-.04.11-.07.17l-.03.08c-.03.07-.06.14-.08.22-.1-.23-.2-.46-.31-.7-.07-.15-.21-.25-.36-.25h0ZM28.18,10.52c-.05-.11-.09-.21-.15-.31-.06-.1-.05-.18.02-.28.08-.12.16-.25.23-.39l.18.58s0,0,0,0c-.09.13-.19.26-.29.4h0ZM26.95,10.79l-.03-.04c-.09-.16-.19-.32-.28-.49l.1.02c.16.04.33.07.49.11.07.12.12.25.18.38.01.03.02.05.03.08-.17-.02-.33-.04-.49-.06h0ZM29.12,10.58s0,0,0,0c0,0,0,0,0,0h0ZM29.11,10.59h.39s.23,0,.23,0l-.07.08-.05.06c-.1.1-.19.21-.29.31-.12-.01-.25-.03-.38-.04h-.12s.01-.03.01-.03c.1-.13.19-.26.28-.38h0ZM25.57,11.43s0,0,0,0c0,0,0,0,0,0h0ZM26.46,12.03l.05-.06c.12-.13.24-.26.36-.39.16.01.32.03.49.05-.06.08-.12.16-.17.24-.08.14-.16.17-.26.17-.02,0-.04,0-.06,0-.09,0-.17-.01-.26-.01-.05,0-.11,0-.16,0h0ZM29.53,12.36c-.13-.03-.25-.06-.39-.07-.17-.02-.26-.09-.31-.26-.03-.08-.06-.16-.1-.24.17.02.33.03.49.05.1.18.2.35.31.52h0ZM27.9,13.09c-.06-.18-.11-.36-.17-.53-.02-.05-.01-.07.02-.11.08-.11.16-.21.23-.32l.02-.03c.07.16.14.3.2.45-.09.16-.18.32-.28.48l-.03.05h0Z"/>
          </g>
          <path class="cls-10" d="M30.83,14.67c-.22-.08-.44-.17-.66-.25-.23-.27-.46-.54-.67-.82.49.19.98.38,1.46.57.18.07.25.18.22.33-.04.16-.19.24-.35.18Z"/>
          <path class="cls-12" d="M31.32,15.57s0,.02,0,.02c-.17-.16-.34-.33-.5-.49.11.04.22.09.34.13.16.06.23.2.18.33Z"/>
          <path class="cls-6" d="M34.02,11.95c.01-.15-.09-.26-.26-.28-.05,0-.11-.01-.16-.02-.3-.03-.59-.06-.91-.1.05-.04.08-.07.11-.09.17-.14.35-.28.52-.42.18-.15.16-.37-.03-.46-.12-.06-.21-.02-.3.06-.32.26-.65.52-.97.78-.03.02-.06.05-.08.05-.18-.01-.36-.03-.55-.05.04-.03.05-.05.07-.06.3-.24.6-.48.9-.72.17-.14.15-.35-.03-.45-.11-.06-.21-.02-.3.05-.43.35-.86.69-1.29,1.03-.03.02-.06.06-.09.05-.21-.01-.41-.04-.63-.06.02-.03.03-.05.05-.06.24-.26.48-.53.72-.79.08-.09.13-.19.08-.31-.05-.12-.15-.17-.28-.17-.35,0-.7,0-1.05,0-.03,0-.06,0-.1,0,.12-.16.22-.31.34-.45.03-.04.08-.07.13-.08.55-.09,1.1-.17,1.65-.26.17-.03.28-.15.25-.31-.02-.15-.16-.23-.33-.21-.37.06-.74.11-1.11.17-.03,0-.05,0-.1,0,.1-.13.19-.25.27-.37.04-.07.09-.09.17-.1.4-.06.81-.12,1.21-.19.19-.03.28-.15.26-.31-.02-.15-.16-.23-.34-.2-.23.03-.45.07-.69.1-.03,0-.06,0-.1,0,.22-.3.43-.59.64-.88.09-.13.07-.28-.05-.37s-.27-.07-.37.06c-.15.2-.29.4-.44.6-.06.08-.12.17-.2.27-.01-.05-.02-.08-.02-.11-.04-.23-.07-.47-.11-.7-.02-.13-.11-.22-.23-.24-.11-.02-.22.04-.27.15-.02.06-.03.13-.02.2.06.41.12.82.19,1.23,0,.03.01.08,0,.1-.1.14-.2.28-.32.44-.01-.06-.02-.09-.03-.13-.06-.36-.11-.73-.17-1.09-.03-.17-.15-.27-.3-.24-.15.02-.24.15-.22.32.07.49.14.99.23,1.48.04.19.02.34-.12.48-.08.09-.14.2-.23.3-.02-.04-.03-.07-.04-.09-.11-.34-.22-.68-.32-1.03-.04-.12-.11-.19-.23-.2-.12-.02-.2.04-.26.15-.11.19-.22.39-.33.58-.08.14-.16.28-.25.44-.08-.18-.15-.34-.22-.5-.03-.07-.03-.13,0-.2.2-.51.4-1.02.59-1.54.02-.06.03-.14.01-.21-.02-.11-.13-.17-.24-.18-.11,0-.21.07-.25.18-.14.36-.27.71-.42,1.07,0,.02-.02.05-.04.08-.07-.16-.14-.29-.19-.43-.02-.05-.02-.11,0-.16.15-.39.3-.78.45-1.17.06-.17,0-.31-.15-.37-.14-.05-.27.02-.34.18-.04.08-.06.17-.1.25-.06.17-.13.33-.2.51-.02-.04-.03-.06-.04-.09,0,0,0-.01,0-.02.44,1.98,1.27,4.2,2.78,6.3-.03-.07-.07-.16-.1-.24.06.01.1.02.14.03.33.07.67.15,1.01.22.11.03.21,0,.28-.09.07-.1.07-.21,0-.31-.13-.22-.26-.44-.39-.66-.07-.11-.13-.22-.2-.35.07,0,.12,0,.16.02.16.02.34,0,.47.07.13.07.21.23.31.36.27.33.53.66.8.99.1.12.23.15.35.09.15-.09.18-.26.07-.4-.2-.25-.4-.5-.6-.75-.05-.06-.11-.13-.17-.22.18.02.33.03.49.06.04,0,.09.03.12.07.27.33.54.66.81,1,.1.13.26.14.37.06.12-.1.14-.25.04-.38-.03-.04-.07-.09-.11-.13-.14-.17-.27-.33-.42-.52.06,0,.09,0,.13.01.31.03.63.07.94.1.17.01.29-.08.31-.24ZM28.15,10.8c-.08-.18-.15-.36-.23-.52-.09-.15-.07-.28.02-.42.13-.2.24-.42.38-.65.03.1.06.17.08.24.07.21.13.42.2.63,0,.03.02.08,0,.1-.14.2-.29.4-.45.62ZM29.01,10.49s.06-.04.09-.04c.3,0,.59,0,.92,0-.1.11-.18.21-.27.31-.11.12-.23.25-.35.37-.02.02-.05.04-.08.04-.25-.02-.49-.05-.76-.08.16-.22.3-.41.45-.61ZM29.8,12.56c-.24-.05-.45-.12-.67-.14-.24-.02-.36-.14-.42-.36-.05-.15-.12-.28-.19-.44.27.03.51.05.76.08.02,0,.04.02.05.03.16.27.31.54.48.82Z"/>
        </g>
      </g>
    </g>
  </g>
</svg>