<?xml version="1.0" encoding="UTF-8"?>
<svg xmlns="http://www.w3.org/2000/svg" xmlns:xlink="http://www.w3.org/1999/xlink" viewBox="0 0 54.79 37.76">
  <defs>
    <style>
      .cls-1 {
        fill: #86caf0;
      }

      .cls-2 {
        fill: #e6faff;
      }

      .cls-3 {
        fill: url(#linear-gradient-2);
      }

      .cls-4 {
        fill: url(#linear-gradient);
      }

      .cls-5 {
        fill: #d0f3ff;
        mix-blend-mode: multiply;
      }

      .cls-6 {
        isolation: isolate;
      }

      .cls-7 {
        fill: #daf5fe;
      }

      .cls-8 {
        fill: #fffffe;
      }

      .cls-9 {
        fill: #fff;
      }

      .cls-10 {
        fill: #3673c9;
      }
    </style>
    <linearGradient id="linear-gradient" x1="35.66" y1="3.31" x2="22.02" y2="29.15" gradientUnits="userSpaceOnUse">
      <stop offset="0" stop-color="#91c1ff"/>
      <stop offset="1" stop-color="#6babff"/>
    </linearGradient>
    <linearGradient id="linear-gradient-2" x1="39.95" y1="-5.79" x2="25.7" y2="22.93" gradientUnits="userSpaceOnUse">
      <stop offset="0" stop-color="#fff"/>
      <stop offset="1" stop-color="#fff" stop-opacity="0"/>
    </linearGradient>
  </defs>
  <g class="cls-6">
    <g id="Layer_2" data-name="Layer 2">
      <g id="Layer_1-2" data-name="Layer 1">
        <g>
          <g>
            <path class="cls-4" d="M31.79,33.56c-1.3,0-2.7-.23-4.16-.7-.44-.14-.88-.29-1.32-.45-1.08-.39-2.14-.83-3.14-1.3-.02,0-.08-.03-.13-.06-.15-.08-.25-.13-.35-.17,0,0-.74-.37-.92-.47v-.25s-.1.19-.1.19c-2.86-1.5-5.34-3.31-6.99-5.1-2.73-2.95-3.2-5.83-1.61-9.94,1.32-3.42,4.33-5.22,5.31-5.72-.72-.76-1.66-2.91-.7-5.59.76-2.13,3.28-3.79,5.75-3.79,1.01,0,1.95.28,2.73.8,2.53,1.69,2.17,4.7,2.01,5.54,4.13.93,6.9,2.79,8.2,3.84.05.04.08.06.09.06.39.32.66.57.83.73.35-.43,1.06-.96,1.94-1.3.02-.01.03-.02.05-.03.63-.23,1.26-.35,1.88-.35.28,0,.55.02.82.07,1.27.21,2.5,1.07,3.29,2.3.66,1.03,1.31,2.76.65,5.18-.98,3.63-4.37,4.06-5.33,4.11.11.95.37,4.47-1.32,7.9-1.43,2.9-4.08,4.5-7.47,4.5Z"/>
            <path class="cls-10" d="M23.42.43c.92,0,1.82.24,2.61.77,2.85,1.91,1.87,5.52,1.87,5.52,4.11.88,6.9,2.7,8.32,3.84.07.05.11.08.11.08.65.53.97.88.97.88.22-.41.98-1.06,2.04-1.46h0c.54-.21,1.15-.34,1.8-.34.26,0,.52.02.78.07,2.29.38,4.87,3.14,3.77,7.21-1.04,3.86-4.93,3.96-5.33,3.96-.02,0-.03,0-.03,0,0,0,.66,4.11-1.27,8.01-1.39,2.83-3.96,4.38-7.28,4.38-1.26,0-2.63-.22-4.09-.69-.44-.14-.88-.29-1.31-.45-1.07-.39-2.11-.82-3.12-1.29-.05-.02-.11-.05-.16-.08-.11-.06-.22-.11-.33-.16-.3-.16-.6-.3-.9-.46-.03-.02-.07-.04-.1-.06-2.86-1.5-5.31-3.3-6.93-5.06-2.67-2.89-3.11-5.72-1.57-9.71,1.54-3.99,5.5-5.75,5.5-5.75-.68-.37-1.92-2.68-.9-5.56.74-2.08,3.18-3.65,5.55-3.65M23.42,0c-2.6,0-5.15,1.69-5.95,3.93-.86,2.42-.21,4.6.57,5.6-1.19.66-3.92,2.47-5.17,5.71-1.6,4.14-1.1,7.18,1.66,10.16,1.66,1.8,4.16,3.63,7.04,5.14.05.03.08.05.11.06.17.09.35.18.54.27l.36.18c.14.06.23.1.32.15,0,0,.04.02.05.02.05.03.11.05.16.07,1,.47,2.06.91,3.14,1.3.44.16.88.31,1.33.45,1.48.47,2.9.71,4.22.71,3.48,0,6.2-1.64,7.66-4.62,1.6-3.25,1.48-6.58,1.36-7.8,1.27-.11,4.36-.76,5.3-4.25.53-1.95.29-3.85-.68-5.35-.82-1.28-2.11-2.18-3.44-2.4-.28-.05-.57-.07-.86-.07-.64,0-1.3.12-1.95.36-.03.01-.06.02-.08.04-.82.32-1.45.78-1.85,1.18-.16-.15-.38-.35-.65-.57-.02-.01-.03-.02-.05-.04,0,0-.03-.02-.08-.05-1.28-1.03-4.01-2.87-8.07-3.82.17-1.08.32-3.91-2.13-5.55-.82-.55-1.8-.84-2.85-.84h0Z"/>
          </g>
          <path class="cls-3" d="M44.68,16.64c-1,3.71-5.29,3.58-5.29,3.58,0,0,.5,4.08-1.25,7.64-1.75,3.56-5.55,4.9-10.37,3.37-.4-.13-.8-.27-1.2-.41-.98-.35-1.93-.75-2.85-1.18-.05-.02-.1-.05-.15-.07-.1-.06-.2-.1-.3-.14-.28-.14-.55-.28-.82-.42-.03-.02-.06-.04-.09-.06-2.6-1.37-4.84-3.01-6.32-4.61-2.44-2.64-2.84-5.22-1.43-8.86,1.4-3.64,5.47-5.57,5.47-5.57-.62-.34-2.29-2.45-1.35-5.08.94-2.63,4.76-4.05,7.16-2.05,2.23,1.86,1.1,4.75,1.1,4.75,3.75.8,7.72,3,9.01,4.04.06.05.1.07.1.07.59.48.88.8.88.8.2-.37.9-.97,1.86-1.33h0c.68-.26,1.49-.4,2.36-.25,2.08.35,4.48,2.06,3.48,5.78Z"/>
          <path class="cls-9" d="M45.7,16.99c-1.1,4.07-5.37,3.96-5.37,3.96,0,0,.66,4.11-1.27,8.01-1.92,3.91-6.08,5.37-11.37,3.69-.44-.14-.88-.29-1.31-.45,5.43,1.73,10.21.56,11.98-3.03,2.12-4.3,1.43-8.64,1.43-8.64,0,0,1.85.36,3.8-1.16,1.95-1.53,2.48-5.01.91-7.53-1.58-2.51-5.16-1.79-5.16-1.79h0c.75-.28,1.64-.44,2.59-.28,2.29.38,4.87,3.14,3.77,7.21Z"/>
          <path class="cls-9" d="M27.39,7.15s1.22-3.15-1.25-5.39c-2.48-2.24-6.39-.42-7.6,1.84-1.21,2.25-.59,5.19.94,6.12,0,0-5.43,2.26-6.31,7.88-.88,5.58,2.58,9.01,8.6,12.57-2.86-1.5-5.31-3.3-6.93-5.06-2.67-2.89-3.11-5.72-1.57-9.71,1.54-3.99,5.5-5.75,5.5-5.75-.68-.37-1.92-2.68-.9-5.56,1.03-2.88,5.32-4.79,8.16-2.88,2.85,1.91,1.87,5.52,1.87,5.52,4.11.88,6.9,2.7,8.32,3.84-.74-.49-4.87-3.11-8.83-3.41Z"/>
          <path class="cls-2" d="M15.57,17.4c-.49.95-.73,2.05-.61,3.12.06.55.15,1.08.32,1.6s.4,1.04.65,1.53c.19.37.64.69,1.03.79.41.11.96.06,1.33-.17.83-.53,1.05-1.49.62-2.36-.1-.19-.19-.39-.27-.59l.17.41c-.21-.5-.37-1.02-.45-1.55l.06.46c-.05-.39-.06-.78-.01-1.18l-.06.46c.04-.31.12-.61.24-.9l-.17.41c.04-.1.09-.19.13-.28.21-.41.3-.88.17-1.33-.11-.4-.42-.83-.79-1.03-.79-.42-1.92-.24-2.36.62h0Z"/>
          <path class="cls-2" d="M18.64,16.27c2.22,0,2.22-3.45,0-3.45s-2.22,3.45,0,3.45h0Z"/>
          <path class="cls-2" d="M41.35,17.97c2.22,0,2.22-3.45,0-3.45s-2.22,3.45,0,3.45h0Z"/>
        </g>
        <g>
          <g>
            <path class="cls-7" d="M54.76,34.26c0,.19-.02.38-.05.55-.26,1.54-1.6,2.72-3.22,2.72-1.8,0-3.27-1.47-3.27-3.27,0-.26.03-.52.09-.76.34-1.43,1.64-2.5,3.18-2.5,1.8,0,3.27,1.46,3.27,3.27Z"/>
            <path class="cls-1" d="M54.79,34.26c-.1,4.82-6.31,4.49-6.74,0-.03-4.72,6.76-4.8,6.74,0h0ZM54.73,34.26c-.24-3.86-6.04-3.89-6.34,0-.19,4.13,6.21,3.83,6.34,0h0Z"/>
          </g>
          <path class="cls-5" d="M54.71,34.82c-.26,1.54-1.6,2.72-3.22,2.72-1.8,0-3.27-1.47-3.27-3.27,0-.26.03-.52.09-.76.2.76.93,2.12,2.73,2.43,1.91.34,3.19-.63,3.67-1.12Z"/>
          <ellipse class="cls-8" cx="51.49" cy="32.78" rx="1.4" ry="1.31"/>
        </g>
        <g>
          <g>
            <path class="cls-7" d="M4.08,21.53c0,.11,0,.23-.03.34-.16.94-.97,1.65-1.96,1.65-1.1,0-1.99-.89-1.99-1.99,0-.16.02-.31.06-.46.21-.87,1-1.52,1.93-1.52,1.1,0,1.99.89,1.99,1.99Z"/>
            <path class="cls-1" d="M4.1,21.53c-.04,2.93-3.87,2.71-4.1,0-.04-2.85,4.11-2.94,4.1,0h0ZM4.06,21.53c-.12-2.33-3.69-2.37-3.85,0-.13,2.5,3.79,2.32,3.85,0h0Z"/>
          </g>
          <path class="cls-5" d="M4.05,21.87c-.16.94-.97,1.65-1.96,1.65-1.1,0-1.99-.89-1.99-1.99,0-.16.02-.31.06-.46.12.46.57,1.29,1.66,1.48,1.16.21,1.94-.38,2.23-.68Z"/>
          <ellipse class="cls-8" cx="2.09" cy="20.63" rx=".85" ry=".8"/>
        </g>
      </g>
    </g>
  </g>
</svg>