<?xml version="1.0" encoding="UTF-8"?>
<svg xmlns="http://www.w3.org/2000/svg" xmlns:xlink="http://www.w3.org/1999/xlink" viewBox="0 0 32.31 21.27">
  <defs>
    <style>
      .cls-1 {
        fill: #86caf0;
      }

      .cls-2 {
        fill: #96e5fe;
      }

      .cls-3 {
        fill: #d0f3ff;
        mix-blend-mode: multiply;
      }

      .cls-4 {
        isolation: isolate;
      }

      .cls-5 {
        fill: url(#linear-gradient);
      }

      .cls-5, .cls-6, .cls-7 {
        mix-blend-mode: overlay;
      }

      .cls-8 {
        fill: #daf5fe;
      }

      .cls-6 {
        fill: url(#linear-gradient-2);
      }

      .cls-7 {
        fill: url(#linear-gradient-3);
      }

      .cls-9 {
        fill: #fffffe;
      }
    </style>
    <linearGradient id="linear-gradient" x1="-50.54" y1="-473.21" x2="-60.79" y2="-459.2" gradientTransform="translate(-142.11 451.86) rotate(28.01)" gradientUnits="userSpaceOnUse">
      <stop offset="0" stop-color="#ddc5f0" stop-opacity="0"/>
      <stop offset=".04" stop-color="#ddc5f0" stop-opacity=".02"/>
      <stop offset=".1" stop-color="#dfc5f0" stop-opacity=".09"/>
      <stop offset=".16" stop-color="#e2c6f0" stop-opacity=".2"/>
      <stop offset=".23" stop-color="#e6c8f1" stop-opacity=".35"/>
      <stop offset=".3" stop-color="#eccaf1" stop-opacity=".54"/>
      <stop offset=".37" stop-color="#f2ccf2" stop-opacity=".78"/>
      <stop offset=".44" stop-color="#f9cff3"/>
    </linearGradient>
    <linearGradient id="linear-gradient-2" x1="-48.4" y1="-471.64" x2="-58.65" y2="-457.63" xlink:href="#linear-gradient"/>
    <linearGradient id="linear-gradient-3" x1="-56.8" y1="-477.79" x2="-67.06" y2="-463.78" gradientTransform="translate(-142.11 451.86) rotate(28.01)" gradientUnits="userSpaceOnUse">
      <stop offset="0" stop-color="#ddc5f0" stop-opacity="0"/>
      <stop offset="0" stop-color="#ddc5f0" stop-opacity=".03"/>
      <stop offset=".08" stop-color="#e4c7f0" stop-opacity=".28"/>
      <stop offset=".15" stop-color="#ebcaf1" stop-opacity=".5"/>
      <stop offset=".21" stop-color="#f0cbf2" stop-opacity=".68"/>
      <stop offset=".28" stop-color="#f3cdf2" stop-opacity=".82"/>
      <stop offset=".34" stop-color="#f6cef2" stop-opacity=".92"/>
      <stop offset=".39" stop-color="#f8cef2" stop-opacity=".98"/>
      <stop offset=".44" stop-color="#f9cff3"/>
    </linearGradient>
  </defs>
  <g class="cls-4">
    <g id="Layer_2" data-name="Layer 2">
      <g id="Layer_1-2" data-name="Layer 1">
        <g>
          <g>
            <path class="cls-2" d="M25.36,21.14c-.24,0-.45-.15-.56-.4l-.69-1.55-.24.61c-.07.18-.13.35-.2.53-.11.27-.33.43-.58.43-.07,0-.14-.01-.21-.04-.16-.06-.28-.17-.35-.31-.07-.15-.07-.33,0-.51.14-.36.7-1.8.83-2.16.02-.06.02-.17-.01-.25-.06-.17-.14-.34-.22-.52l-.35.9c-.12.31-.24.63-.37.94-.11.28-.32.45-.58.45-.07,0-.14-.01-.21-.04-.34-.13-.48-.48-.34-.84l.05-.14c.35-.9.69-1.8,1.05-2.7.04-.1.04-.17-.01-.27-.1-.22-.2-.44-.3-.67v-.02s-.08.11-.08.11c-.1.17-.2.33-.29.49l-.21.37c-.14.24-.27.48-.41.71-.12.21-.3.32-.51.32-.35-.04-.53-.19-.61-.45-.14-.42-.59-1.85-.59-1.85l-.04.06c-.1.14-.19.27-.29.39-.16.17-.2.35-.15.63.13.7.23,1.4.34,2.1l.11.72c.04.33-.1.59-.39.7-.07.03-.14.04-.22.04-.2,0-.38-.1-.49-.27-.06-.08-.09-.19-.12-.32,0,0-.23-1.49-.3-1.94-.15.2-.28.38-.4.56h0s0,.03,0,.12c.11.75.23,1.49.34,2.23.02.17.02.31-.02.43-.08.24-.3.39-.56.39-.34-.04-.56-.26-.6-.54-.06-.35-.12-.7-.17-1.06l-.03-.17-.99,1.35c-.14.19-.32.29-.51.29-.12,0-.25-.04-.36-.12-.14-.1-.22-.23-.24-.38-.03-.17.02-.34.14-.51l1-1.37c-.12.03-.24.05-.35.07l-.87.14s-.11,0-.11,0c-.32,0-.57-.2-.63-.49-.03-.17.01-.33.1-.46.1-.14.26-.23.44-.25.74-.12,1.49-.24,2.24-.35.14-.02.22-.07.3-.17.09-.14.19-.28.3-.43l-2,.31s-.11.01-.12.01c-.19,0-.36-.09-.48-.25-.14-.18-.16-.4-.05-.61.06-.13.2-.3.51-.35l3.02-.47c.11-.01.17-.05.22-.12.12-.17.24-.33.36-.5l.09-.13h-1.89c-.33,0-.54-.13-.65-.39-.13-.31.02-.53.19-.71l1.25-1.36h-.12c-.27-.04-.53-.07-.8-.09,0,0-.09.07-.09.07l-2.37,1.91c-.14.12-.3.18-.46.18-.17,0-.33-.08-.45-.22-.1-.12-.15-.27-.14-.42.02-.18.12-.35.28-.48l1.53-1.23c-.24-.03-.47-.05-.7-.06,0,0-.11.06-.11.07l-1.79,1.45c-.13.11-.27.17-.42.17-.08,0-.16-.02-.25-.06-.22-.1-.35-.28-.37-.51-.02-.28.16-.45.29-.55l.93-.75-1.09-.12c-.26-.03-.43-.04-.6-.06-.19-.03-.36-.12-.46-.25-.09-.12-.13-.27-.1-.42.04-.33.28-.54.61-.54.49.04.89.09,1.3.14l.47.05-.79-.99c-.21-.29-.17-.64.1-.86.11-.09.24-.13.37-.13.18,0,.36.09.48.24l1.49,1.84s.1.08.14.08c.2.03.4.05.62.07l-.97-1.2c-.11-.13-.21-.26-.31-.39-.2-.27-.16-.64.09-.84.12-.09.25-.14.39-.14.18,0,.35.08.47.23l1.96,2.43s.13.09.2.1c.22.03.46.06.7.08h.07c-.22-.38-.97-1.68-.97-1.68-.13-.23-.13-.46.02-.67.12-.17.29-.26.49-.26.05,0,.1,0,.16.02l1.89.42c-.06-.14-.12-.28-.17-.42-.09-.3-.27-.47-.6-.59-.56-.2-1.12-.41-1.67-.63l-.83-.32c-.2-.08-.4-.19-.47-.43-.07-.23-.01-.44.16-.61.11-.11.25-.17.4-.17.08,0,.15.01.23.04l1.9.73-.04-.09c-.09-.2-.18-.4-.27-.59l-2.2-.83c-.4-.16-.57-.47-.44-.81.1-.25.29-.39.54-.39.1,0,.22.02.33.07l1.09.42-.44-1.02c-.1-.21-.17-.37-.24-.54-.14-.34-.01-.68.31-.82.08-.04.16-.05.24-.05.24,0,.45.15.56.39.24.52.47,1.04.7,1.56.09-.23.32-.83.32-.83.04-.11.08-.21.12-.31.11-.27.33-.43.57-.43.07,0,.14.01.21.04.34.14.48.47.34.84,0,0-.69,1.79-.83,2.16-.02.06-.02.15,0,.21.06.17.14.34.22.51v.03c.24-.58.46-1.15.68-1.72l.06-.15c.1-.25.33-.42.58-.42.28.01.51.19.57.43.03.13.02.3-.03.45-.36.95-.73,1.9-1.1,2.84-.04.1-.04.18,0,.28.09.18.17.37.25.56l.06.13c.12-.21.23-.4.34-.59.14-.24.28-.48.41-.71l.21-.37c.16-.28.37-.33.52-.33.34.03.53.19.62.46l.58,1.84v-.02c.1-.13.19-.25.29-.36.2-.21.25-.43.18-.78-.13-.72-.24-1.45-.35-2.18l-.08-.55c-.03-.19,0-.37.11-.51.09-.13.23-.21.39-.23,0,0,.09,0,.1,0,.31,0,.54.22.59.56.11.65.21,1.31.31,1.96,0,0,.32-.44.41-.57,0-.01,0-.08-.01-.1-.12-.76-.24-1.52-.35-2.27-.02-.16,0-.31.04-.43.08-.22.29-.36.53-.36.36.05.57.26.62.55l.19,1.22,1.01-1.38c.13-.17.3-.26.49-.26.13,0,.25.04.36.12.28.21.33.56.13.85l-1.01,1.39,1.17-.18s.1-.01.14-.01c.34,0,.58.19.63.49.03.17,0,.33-.1.46-.1.14-.27.23-.48.26-.74.12-1.49.24-2.23.34-.11.02-.17.05-.23.14-.1.15-.21.3-.33.46.68-.1,1.32-.2,1.95-.3.04,0,.09,0,.13,0,.33,0,.57.19.62.5.03.16,0,.32-.1.44-.1.14-.27.24-.47.27l-3.05.48c-.05,0-.12.05-.15.09-.16.2-.31.4-.46.61l-.02.03h.88s1.03,0,1.03,0c.31,0,.53.14.63.39.13.31-.03.54-.17.7-.37.4-.74.8-1.1,1.2l-.17.19c.32.03.62.07.92.09,0,0,.09-.07.09-.07.79-.63,1.58-1.27,2.38-1.91.14-.12.28-.17.43-.17.09,0,.18.02.27.07.2.11.32.28.34.47.02.21-.07.41-.25.56l-1.56,1.25c.25.03.49.05.73.07l1.85-1.5c.1-.08.25-.19.44-.19.08,0,.17.02.26.06.2.09.33.26.35.46.03.21-.07.43-.27.59l-.95.76c.47.05,1.68.19,1.68.19.37.04.61.31.58.65-.03.33-.29.55-.63.55,0,0-1.46-.15-1.75-.18l.58.73c.07.08.14.16.2.24.23.29.19.65-.09.88-.11.08-.23.13-.36.13-.18,0-.36-.09-.49-.25,0,0-1.19-1.47-1.5-1.84-.03-.04-.09-.07-.14-.08-.2-.03-.4-.05-.61-.07.05.06.45.56.45.56.27.33.54.67.81,1.01.12.16.17.34.14.52-.03.17-.14.31-.3.41-.1.05-.2.08-.29.08-.19,0-.37-.1-.5-.27l-1.48-1.83c-.05-.07-.1-.14-.15-.21-.12-.17-.24-.34-.38-.42-.15-.08-.34-.09-.55-.1-.09,0-.18,0-.26-.02h-.07c.08.14.16.29.25.43.24.41.47.81.71,1.22.18.32.09.56-.02.71-.12.16-.28.24-.48.24-.05,0-.11,0-.17-.02l-1.89-.41.37.84s.1.03.1.03c.05.02.09.03.13.05.88.34,1.79.69,2.69,1.04.51.2.52.56.47.75-.07.28-.3.46-.58.46-.08,0-.16-.01-.23-.04-.27-.1-.54-.2-.8-.31l-1.08-.42.04.08c.09.2.17.39.27.58l.56.21c.36.14.72.28,1.08.42.14.05.28.1.42.16l.2.08c.18.07.32.19.39.34.06.13.06.29,0,.43-.12.27-.32.4-.55.4-.09,0-.19-.02-.28-.05l-1.13-.44.68,1.54c.15.36.03.7-.3.85-.08.04-.16.05-.24.05ZM20.82,12.33c-.15.2-.29.39-.43.58-.09.11-.11.19-.06.33.13.36.24.73.36,1.12l.04.12.2-.35c.18-.32.36-.62.53-.93-.15-.35-.29-.68-.45-1.03l-.03-.07-.16.22ZM22.13,11.69c.09.19.18.38.24.57.11.37.31.53.67.57.28.03.56.1.85.17.04.01.08.02.13.03-.25-.44-.5-.85-.74-1.27-.33-.04-.66-.08-1-.11l-.17-.02.03.06ZM18.41,12.35c.15,0,.31,0,.46.02.04,0,.09,0,.12,0,.26,0,.43-.11.58-.37.11-.19.25-.37.39-.56l.04-.05c-.42-.05-.8-.09-1.19-.12l-1.01,1.09s.46-.01.59-.01ZM23.41,10.54c.2-.21.68-.73.68-.73l.32-.36s-1.42,0-1.42,0c-.03,0-.06.01-.06.02-.18.24-.35.48-.54.73l-.16.21s.95.1,1.19.13ZM18.92,10.01c.37.08.7.12,1.04.16l.17.02-.15-.34c-.1-.24-.2-.47-.31-.69-.01-.02-.06-.06-.1-.07-.29-.07-.59-.14-.88-.2l-.49-.11.72,1.24ZM21.45,7.41c-.17.31-.33.6-.51.87-.16.24-.17.42-.04.65.11.2.2.42.3.64l.05.13c.24-.33.47-.64.7-.96l-.38-1.23-.06-.18-.05.09Z"/>
            <path class="cls-1" d="M16.87.79c.18,0,.35.11.44.31.25.54.49,1.08.72,1.63,0,.01,0,.03.02.04.02.04.04.08.08.16.13-.34.25-.64.37-.95.06-.15.11-.31.18-.46.09-.23.27-.36.46-.36.05,0,.11.01.16.03.27.11.39.37.27.68-.28.73-.56,1.44-.83,2.16-.03.09-.03.21,0,.3.1.26.22.51.35.8.04-.07.06-.11.07-.15.26-.66.52-1.32.77-1.97.08-.21.27-.34.46-.34,0,0,0,0,0,0,.2,0,.39.14.44.33.03.12.01.27-.02.38-.36.95-.73,1.89-1.09,2.84-.06.13-.05.25,0,.37.14.29.26.58.41.91.17-.29.32-.55.46-.8.21-.36.41-.72.62-1.08.1-.17.23-.27.41-.27.02,0,.04,0,.07,0,.22.02.36.16.43.37.2.63.4,1.26.6,1.89.01.04.04.09.07.17.15-.2.26-.4.42-.56.25-.27.28-.55.22-.89-.16-.9-.29-1.81-.43-2.72-.05-.31.12-.55.4-.59.03,0,.05,0,.08,0,.24,0,.43.17.47.46.11.67.21,1.35.32,2.02.01.06.02.12.05.23.21-.3.4-.55.58-.81.03-.04.02-.13.01-.19-.12-.76-.24-1.52-.35-2.27-.02-.12-.01-.26.03-.37.07-.18.24-.28.41-.28.03,0,.05,0,.08,0,.21.03.38.2.42.44.07.44.14.87.2,1.3,0,.06.02.11.04.21.14-.19.25-.35.36-.5.27-.37.54-.75.81-1.11.11-.14.25-.21.39-.21.1,0,.2.03.29.1.22.16.27.44.1.67-.38.53-.77,1.06-1.18,1.62.08,0,.14,0,.19-.02.43-.06.85-.13,1.26-.19.04,0,.09,0,.13,0,.27,0,.46.14.5.38.05.3-.13.53-.48.58-.75.12-1.49.24-2.23.34-.14.02-.24.07-.32.19-.15.22-.31.43-.49.68.08,0,.13,0,.18,0,.69-.11,1.37-.22,2.06-.32.04,0,.07,0,.11,0,.26,0,.46.15.5.39.05.28-.14.52-.46.57-1.02.16-2.03.32-3.05.48-.08.02-.18.07-.23.14-.21.26-.4.53-.62.83.08,0,.13.01.18.01,0,0,.01,0,.02,0,.3,0,.6,0,.89,0,.35,0,.7,0,1.05,0,0,0,.01,0,.02,0,.23,0,.41.1.5.31.1.22,0,.4-.15.57-.45.48-.89.97-1.33,1.45-.02.03-.05.06-.08.12.4.04.78.09,1.15.11,0,0,0,0,0,0,.05,0,.12-.06.16-.1.8-.63,1.59-1.27,2.38-1.91.11-.09.23-.15.35-.15.07,0,.14.02.21.05.34.18.37.57.06.83-.55.44-1.1.89-1.66,1.33-.03.02-.06.05-.13.11.36.04.69.08,1.02.1,0,0,0,0,0,0,.04,0,.1-.05.14-.08.59-.48,1.19-.96,1.79-1.44.11-.09.23-.16.36-.16.06,0,.13.02.2.05.36.17.39.58.06.85-.32.26-.64.52-.97.77-.06.05-.12.1-.2.17.58.06,1.12.12,1.67.18.1.01.2.02.29.04.31.04.5.25.47.52-.03.27-.23.44-.51.44-.02,0-.04,0-.06,0-.58-.06-1.16-.13-1.74-.18-.07-.01-.13,0-.24-.02.27.35.52.65.77.96.07.08.14.16.2.24.18.24.15.52-.07.7-.09.07-.18.1-.28.1-.14,0-.28-.07-.39-.2-.5-.61-.99-1.23-1.5-1.84-.05-.06-.14-.11-.22-.12-.29-.04-.57-.07-.91-.1.12.16.22.29.32.41.37.47.75.92,1.12,1.39.21.27.15.58-.12.74-.08.04-.15.06-.23.06-.15,0-.29-.07-.41-.22-.5-.61-.99-1.22-1.48-1.83-.18-.23-.33-.53-.57-.66-.24-.13-.57-.1-.86-.13-.09-.01-.18-.02-.3-.03.12.23.24.44.36.64.24.41.47.81.71,1.22.11.19.13.39,0,.57-.1.13-.23.19-.38.19-.05,0-.09,0-.14-.02-.62-.14-1.25-.27-1.86-.41-.07-.02-.15-.03-.26-.05.07.15.13.3.19.43.09.21.19.42.28.62.03.04.11.07.16.09.04.02.08.03.12.05.9.34,1.81.69,2.7,1.04.32.13.46.33.4.6-.06.22-.24.36-.46.36-.06,0-.13-.01-.19-.04-.41-.15-.81-.31-1.22-.47-.25-.1-.5-.19-.76-.29-.05-.02-.1-.03-.19-.06.15.33.28.64.42.93.02.04.08.05.13.08.52.2,1.05.4,1.57.62.21.07.41.16.62.24.29.11.42.36.32.62,0,.01,0,.03-.02.04-.08.18-.24.27-.42.27-.07,0-.15-.02-.24-.05-.45-.18-.91-.35-1.41-.54.16.36.29.67.43.99.12.27.24.55.36.82.12.3.03.56-.24.68-.06.03-.13.04-.19.04-.18,0-.35-.12-.45-.33-.26-.59-.53-1.18-.81-1.82-.1.25-.18.47-.27.69-.09.24-.18.49-.28.73-.09.22-.27.36-.46.36-.05,0-.11-.01-.16-.03-.27-.1-.39-.37-.28-.66.27-.72.56-1.44.83-2.16.03-.09.03-.23,0-.33-.09-.26-.22-.5-.35-.8-.11.27-.2.49-.29.72-.18.46-.35.93-.54,1.39-.09.24-.27.37-.46.37-.05,0-.11-.01-.17-.03-.27-.11-.38-.38-.27-.68.37-.95.73-1.9,1.1-2.84.05-.14.05-.24-.02-.37-.14-.29-.26-.58-.4-.91-.17.3-.33.56-.48.82-.21.36-.41.72-.62,1.08-.09.16-.23.26-.4.26-.02,0-.04,0-.07,0-.22-.03-.36-.15-.42-.36-.21-.63-.4-1.26-.61-1.89-.01-.04-.03-.09-.07-.18-.17.23-.3.44-.47.63-.2.21-.23.44-.18.73.17.93.3,1.88.45,2.81.04.28-.08.48-.31.57-.06.02-.11.03-.17.03-.15,0-.3-.07-.38-.21-.05-.08-.08-.18-.1-.27-.11-.68-.21-1.36-.32-2.04,0-.04-.01-.09-.03-.19-.21.29-.41.54-.58.8-.03.05-.02.14-.01.21.11.75.23,1.49.34,2.23.02.12.02.25-.02.37-.06.19-.24.31-.44.31-.02,0-.04,0-.06,0-.21-.03-.38-.2-.42-.43-.08-.45-.15-.91-.22-1.36,0-.04-.01-.07-.03-.15-.05.06-.08.09-.11.13-.35.48-.71.96-1.06,1.45-.12.16-.26.24-.41.24-.1,0-.19-.03-.28-.1-.24-.17-.27-.45-.07-.71.38-.52.76-1.03,1.14-1.55l-.02-.07c-.19.04-.39.09-.58.13-.29.05-.58.09-.87.14-.03,0-.06,0-.09,0-.26,0-.46-.16-.5-.39-.05-.28.14-.52.44-.56.75-.12,1.49-.24,2.24-.35.17-.02.28-.09.38-.23.14-.22.29-.41.48-.66-.12.02-.2.02-.27.03-.68.11-1.35.21-2.02.31-.03,0-.07,0-.1,0-.15,0-.28-.07-.38-.21-.11-.15-.12-.32-.04-.48.08-.17.23-.25.42-.28,1.01-.15,2.01-.31,3.02-.47.13-.02.23-.06.3-.18.18-.26.38-.52.6-.81-.14,0-.23,0-.32,0-.6,0-1.21,0-1.81,0,0,0,0,0-.01,0-.24,0-.43-.08-.52-.31-.1-.24.01-.41.17-.58.44-.48.88-.95,1.32-1.43.02-.03.04-.07.08-.12-.4-.04-.77-.09-1.15-.12,0,0,0,0,0,0-.05,0-.12.06-.17.1-.79.64-1.58,1.27-2.37,1.91-.13.1-.26.15-.38.15-.13,0-.26-.06-.36-.17-.18-.21-.13-.51.13-.72.54-.44,1.08-.87,1.62-1.31.03-.03.06-.06.13-.12-.35-.04-.67-.08-.99-.1,0,0,0,0-.01,0-.06,0-.12.05-.17.09-.6.49-1.21.97-1.8,1.45-.1.09-.22.14-.34.14-.06,0-.13-.01-.19-.04-.17-.08-.28-.21-.29-.41-.01-.2.1-.33.24-.45.38-.3.75-.61,1.17-.94-.49-.05-.94-.1-1.38-.15-.2-.02-.4-.04-.6-.06-.3-.04-.5-.26-.46-.53.03-.26.22-.43.49-.43.02,0,.05,0,.07,0,.58.06,1.15.13,1.73.19.06,0,.13,0,.24.02-.24-.3-.45-.57-.67-.84-.1-.13-.21-.25-.31-.38-.17-.23-.14-.51.08-.68.09-.07.19-.11.29-.11.14,0,.28.07.39.19.5.61.99,1.23,1.49,1.84.05.07.15.11.22.13.29.04.58.07.92.11-.35-.44-.67-.83-.99-1.23-.16-.19-.32-.39-.48-.59-.16-.22-.13-.51.07-.67.1-.07.21-.11.31-.11.14,0,.27.06.37.19.66.81,1.31,1.62,1.96,2.43.07.07.17.13.28.15.32.05.66.08,1.02.11-.27-.47-.52-.9-.77-1.33-.11-.19-.22-.37-.32-.56-.1-.18-.11-.36.01-.53.1-.14.23-.2.39-.2.04,0,.09,0,.13.02.69.15,1.4.31,2.13.47-.1-.23-.2-.42-.26-.63-.11-.35-.33-.55-.68-.67-.84-.29-1.67-.64-2.5-.95-.18-.07-.34-.16-.4-.35-.05-.18-.01-.35.13-.49.09-.09.2-.14.32-.14.06,0,.12.01.19.04.66.25,1.32.51,1.98.76.05.02.1.03.2.07-.16-.34-.29-.65-.43-.95-.02-.04-.09-.05-.14-.07-.71-.27-1.41-.54-2.12-.82-.34-.13-.48-.37-.37-.65.08-.2.22-.31.43-.31.09,0,.18.02.29.06.39.15.78.3,1.18.45.05.02.1.04.19.07-.2-.45-.38-.87-.56-1.29-.08-.18-.17-.35-.24-.53-.12-.28-.01-.55.24-.66.06-.03.13-.04.19-.04M21.22,9.95c.29-.4.56-.77.83-1.14.03-.04.01-.13,0-.18-.12-.38-.25-.77-.37-1.16-.05-.14-.09-.27-.15-.45-.24.43-.45.83-.69,1.19-.18.27-.21.5-.05.78.16.29.28.61.43.95M20.33,10.34c-.2-.44-.36-.84-.55-1.24-.03-.06-.11-.12-.19-.14-.48-.12-.98-.22-1.47-.33-.05,0-.09,0-.16-.01.29.5.57.98.85,1.47.03.04.08.1.13.1.45.06.9.1,1.39.15M22.99,9.33s0,0,0,0c-.06,0-.13.02-.16.07-.27.36-.53.72-.83,1.12.5.05.95.11,1.41.15,0,0,0,0,0,0,.04,0,.1-.04.14-.08.22-.23.43-.46.64-.69.16-.18.32-.36.5-.57-.34,0-.66,0-.97,0-.24,0-.48,0-.72,0M17.72,12.49c.23,0,.46-.01.69-.01.15,0,.3,0,.45.02.05,0,.09,0,.14,0,.31,0,.52-.14.69-.43.15-.26.35-.49.56-.77-.5-.06-.96-.11-1.41-.15,0,0,0,0-.01,0-.04,0-.09.03-.12.06-.38.41-.76.83-1.16,1.26.08,0,.13,0,.18.01M24.27,13.21c-.31-.53-.59-1.03-.89-1.52-.01-.03-.05-.06-.09-.06-.46-.06-.92-.1-1.4-.16.13.29.27.54.35.82.12.4.35.61.78.66.41.05.8.17,1.24.26M20.69,14.8c.31-.53.6-1.03.88-1.52.02-.03.02-.09,0-.13-.18-.41-.36-.82-.56-1.28-.26.35-.48.67-.72.98-.12.14-.14.27-.08.45.17.48.32.98.48,1.51M16.87.54h0c-.1,0-.2.02-.29.06-.38.18-.54.58-.37.99.08.18.16.37.25.55l.27.62.05.12-.81-.31c-.13-.05-.26-.08-.38-.08-.31,0-.55.17-.66.47-.15.4.05.78.51.97l2.13.82s.01,0,.04.02c.05.11.1.22.15.33l-.59-.23-1.02-.39c-.09-.04-.19-.05-.28-.05-.18,0-.35.07-.49.21-.2.2-.27.47-.19.74.1.33.4.45.54.51.28.11.56.22.84.33.54.21,1.11.43,1.67.63.29.1.45.25.52.5.02.07.05.14.08.21l-.31-.07c-.45-.1-.9-.2-1.34-.29-.06-.01-.13-.02-.19-.02-.24,0-.44.11-.59.3-.18.25-.18.53-.03.81l.16.28.16.28c.18.3.35.6.53.91-.18-.02-.35-.04-.53-.06-.05,0-.1-.04-.13-.07-.32-.39-.65-.8-.97-1.2-.33-.41-.65-.81-.98-1.21-.15-.18-.35-.28-.57-.28-.16,0-.32.06-.46.16-.31.25-.36.69-.12,1.02.11.14.22.28.33.42l.15.18.47.58.15.18c-.11-.01-.21-.03-.31-.04-.02,0-.05-.02-.07-.04l-.74-.92-.75-.92c-.15-.18-.36-.29-.58-.29-.16,0-.32.06-.45.16-.32.26-.37.69-.12,1.02.05.06.1.12.15.18.06.07.11.14.17.2.1.13.2.25.3.38l-.16-.02c-.41-.05-.82-.09-1.23-.13-.03,0-.06,0-.09,0-.4,0-.69.26-.74.65-.03.18.02.36.13.5.12.16.31.27.54.3.16.02.32.04.47.05h.14c.26.04.51.07.78.1l-.51.41-.19.15c-.15.12-.35.33-.33.66.02.28.17.5.44.62.1.04.2.07.29.07.17,0,.34-.07.5-.2l.65-.52c.38-.31.77-.62,1.15-.93.02-.01.03-.02.04-.03.12,0,.24.02.36.03l-.48.39-.81.65c-.19.16-.31.36-.33.57-.02.18.04.36.16.51.15.17.34.26.55.26.18,0,.37-.07.54-.21.78-.62,1.56-1.25,2.34-1.88l-.11-.23.16.19s.02-.02.03-.02c.2.01.41.04.62.06l-1.09,1.18c-.12.13-.4.43-.22.85.09.21.29.47.75.47.31,0,.62,0,.92,0,.24,0,.49,0,.73,0-.11.15-.21.29-.31.43-.03.05-.05.06-.13.07-.51.08-1.01.16-1.52.23-.5.08-1,.16-1.5.23-.37.05-.53.26-.61.43-.12.25-.1.51.07.73.15.2.35.3.58.3.05,0,.09,0,.14-.01l1.02-.16.68-.1c-.05.07-.09.13-.13.2-.05.07-.1.1-.2.11-.75.11-1.5.23-2.24.35-.21.03-.4.14-.52.3-.11.16-.16.35-.13.55.06.35.37.6.75.6.04,0,.08,0,.13,0l.5-.08.37-.06s.03,0,.04,0l-.25.35-.56.76c-.14.19-.2.4-.17.6.03.18.13.34.29.46.13.1.28.15.43.15.23,0,.45-.12.61-.34l.56-.76.26-.35c.05.31.1.63.15.94.05.33.31.59.63.64.03,0,.06,0,.09,0,.31,0,.58-.19.67-.48.04-.13.05-.3.03-.48-.12-.74-.23-1.49-.34-2.23,0-.03,0-.05,0-.06.07-.1.13-.19.21-.29.05.34.11.69.16,1.03l.09.61c.02.15.07.27.14.37.12.2.34.32.59.32.09,0,.18-.02.26-.05.34-.13.52-.44.46-.83l-.11-.74c-.11-.7-.21-1.39-.34-2.08-.04-.24,0-.38.12-.52.07-.08.14-.17.2-.26l.11.35c.13.42.27.84.4,1.26.09.3.32.49.63.53.03,0,.06,0,.1,0,.25,0,.48-.14.62-.38.14-.24.28-.48.42-.72l.2-.36c.07-.13.15-.26.23-.39.07.16.14.32.21.47.03.07.04.1,0,.18-.35.88-.69,1.77-1.04,2.67l-.06.17c-.17.43,0,.84.41,1,.09.03.17.05.26.05.3,0,.57-.2.69-.53.13-.32.26-.65.38-.98l.16-.41.07-.18c.04.08.07.17.1.25.02.06.02.13.01.16-.14.36-.28.72-.41,1.08-.14.36-.28.72-.42,1.08-.08.21-.08.43,0,.61.08.17.23.31.42.38.08.03.16.05.25.05.3,0,.57-.2.69-.51.07-.17.14-.35.2-.52l.08-.22.05-.12h0s.56,1.26.56,1.26c.14.3.39.47.68.47.1,0,.2-.02.3-.07.39-.17.54-.59.36-1l-.18-.41-.18-.41-.19-.44.46.18.39.15c.11.04.22.06.33.06.29,0,.52-.15.65-.42,0-.01.01-.04.02-.06h0c.07-.17.06-.36-.01-.53-.08-.18-.24-.33-.46-.41l-.2-.08c-.14-.06-.29-.11-.43-.17-.35-.14-.72-.29-1.09-.43l-.48-.19h-.01c-.06-.11-.11-.22-.16-.34l.35.14.45.17c.27.11.54.21.81.31.09.03.18.05.28.05.34,0,.62-.22.7-.55.04-.19.08-.65-.55-.9-.9-.35-1.8-.7-2.7-1.05-.02-.01-.06-.03-.11-.05-.03-.01-.05-.02-.06-.02l-.24-.55.57.12c.36.08.72.16,1.08.24.07.01.13.02.2.02.24,0,.44-.1.58-.29.19-.26.19-.56.02-.85-.24-.41-.48-.82-.71-1.22-.04-.08-.09-.15-.13-.23.04,0,.07,0,.11,0,.19,0,.38.01.49.08.13.07.23.22.34.38.05.07.1.15.16.21l.73.9.76.93c.16.2.38.32.6.32.12,0,.24-.03.35-.09.2-.12.32-.29.36-.49.04-.21-.02-.43-.16-.62-.26-.33-.53-.66-.79-.99l-.28-.34c.1.01.21.02.31.04.02,0,.05.02.06.03.32.39.63.77.95,1.16l.56.68c.15.19.37.3.59.3.16,0,.31-.05.44-.16.33-.27.38-.71.11-1.05-.07-.08-.14-.17-.21-.25-.13-.16-.26-.33-.4-.5.2.02.4.04.6.06.26.03.53.06.79.08.03,0,.06,0,.08,0,.41,0,.72-.27.76-.67.04-.4-.25-.74-.69-.79l-.15-.02-.14-.02c-.37-.04-.73-.08-1.09-.12l.71-.57c.23-.19.35-.45.32-.71-.03-.24-.19-.44-.43-.56-.1-.05-.2-.07-.31-.07-.23,0-.41.12-.52.22-.6.48-1.19.96-1.79,1.44,0,0-.02.01-.04.03-.12,0-.24-.02-.36-.03l.48-.39.84-.67c.22-.18.33-.42.3-.67-.02-.24-.17-.45-.4-.57-.11-.06-.22-.08-.33-.08-.17,0-.34.07-.51.2-.8.64-1.58,1.28-2.38,1.91-.03.02-.04.03-.05.04-.2-.01-.41-.03-.62-.06.37-.4.73-.8,1.11-1.2.1-.11.37-.42.19-.84-.12-.29-.39-.46-.72-.46-.37,0-.72,0-1.07,0-.2,0-.41,0-.61,0,.11-.15.22-.3.34-.44.02-.03.06-.05.08-.06l1.52-.24,1.53-.24c.23-.04.43-.15.55-.32.11-.15.15-.34.12-.54-.06-.36-.36-.6-.75-.6-.05,0-.1,0-.15.01-.55.08-1.1.17-1.65.26.05-.07.1-.15.15-.22.04-.05.06-.07.14-.08.75-.11,1.49-.22,2.24-.34.24-.03.43-.14.56-.31.11-.16.16-.35.12-.55-.06-.36-.35-.59-.75-.59-.05,0-.11,0-.16.01-.22.03-.45.07-.67.1-.07.01-.14.02-.21.03l.72-.99.11-.15c.25-.35.18-.78-.15-1.02-.13-.1-.28-.15-.43-.15-.23,0-.44.11-.59.31l-.82,1.12-.02.03-.03-.17-.12-.75c-.05-.34-.31-.6-.63-.64-.04,0-.07,0-.11,0-.29,0-.54.17-.65.44-.08.19-.06.39-.05.49.11.76.23,1.52.35,2.28,0,0,0,.03,0,.04-.07.1-.14.19-.21.29-.09-.55-.17-1.11-.26-1.67-.06-.4-.35-.67-.72-.67-.04,0-.08,0-.12,0-.21.03-.38.14-.49.3-.11.16-.15.36-.12.58l.08.54c.11.72.22,1.46.35,2.19.06.31.02.5-.15.67-.06.06-.11.13-.16.19l-.2-.65-.3-.95c-.1-.32-.33-.51-.64-.54-.03,0-.06,0-.09,0-.18,0-.44.07-.63.4l-.21.36c-.13.24-.27.47-.41.71-.07.13-.14.25-.22.38-.07-.16-.14-.32-.21-.47-.03-.07-.03-.11,0-.17.37-.95.74-1.89,1.1-2.84.03-.09.09-.31.03-.53-.07-.28-.35-.5-.67-.52h0c-.32,0-.59.19-.71.49-.2.53-.41,1.06-.62,1.59-.04-.09-.08-.18-.11-.26-.01-.04-.01-.1,0-.12.14-.37.28-.74.43-1.11.14-.35.27-.7.4-1.05.16-.42,0-.83-.41-1-.09-.03-.17-.05-.26-.05-.3,0-.56.2-.69.51-.04.1-.08.21-.12.31l-.06.15c-.05.13-.1.26-.15.4-.19-.43-.38-.86-.58-1.29-.13-.28-.38-.46-.67-.46h0ZM21.28,9.45c-.08-.2-.17-.39-.27-.58-.11-.19-.1-.32.03-.52.15-.23.29-.47.43-.72l.34,1.07s0,0,0,0c-.17.24-.35.49-.53.74h0ZM19.02,9.94l-.02-.03c-.18-.31-.36-.63-.55-.95l.19.04c.3.07.6.13.9.2.12.22.22.45.33.69.02.05.04.1.06.14-.31-.03-.61-.07-.91-.1h0ZM22.99,9.58h.72s.42,0,.42,0c-.05.05-.09.1-.14.15l-.11.12c-.17.19-.35.38-.53.57,0,0,0,0,0,0-.22-.02-.45-.05-.69-.07-.07,0-.14-.02-.22-.02l.03-.04c.17-.24.34-.47.51-.69h0ZM18.1,12.23l.11-.12c.22-.24.44-.48.65-.71.29.03.59.06.91.09-.11.15-.22.29-.31.45-.15.25-.29.31-.47.31-.03,0-.07,0-.11,0-.16-.02-.32-.02-.47-.02-.1,0-.2,0-.3,0h0ZM23.77,12.84c-.24-.06-.47-.11-.71-.13-.32-.03-.47-.17-.57-.48-.05-.16-.11-.3-.18-.45.3.03.6.06.9.1.19.33.37.64.56.97h0ZM20.76,14.18c-.1-.33-.21-.66-.32-.97-.03-.1-.02-.13.04-.2.15-.2.29-.39.43-.58.01-.02.03-.04.04-.06.13.29.25.56.37.84-.16.29-.33.58-.5.87l-.06.11h0Z"/>
          </g>
          <g>
            <path class="cls-8" d="M24.97,20.6c-.24,0-.45-.15-.56-.4l-.69-1.55-.24.63c-.06.17-.13.34-.2.51-.11.27-.33.43-.58.43-.07,0-.14-.01-.21-.04-.16-.06-.28-.17-.34-.31-.07-.15-.07-.33,0-.51.14-.36.7-1.8.83-2.16.02-.06.02-.17,0-.25-.06-.17-.14-.34-.22-.52,0,0-.59,1.53-.72,1.84-.11.28-.32.45-.58.45-.07,0-.14-.01-.21-.04-.34-.13-.48-.48-.34-.84l.11-.28c.33-.86.66-1.71.99-2.56.04-.1.04-.17-.01-.27-.1-.21-.2-.43-.3-.66v-.03s-.09.14-.09.14c-.09.16-.19.31-.27.47l-.2.36c-.14.24-.27.49-.42.72-.12.21-.3.32-.51.32-.35-.04-.53-.19-.61-.45-.14-.42-.59-1.84-.59-1.84-.01.02-.03.04-.04.06-.1.14-.19.26-.29.39-.16.17-.2.35-.15.63.12.68.23,1.36.33,2.04l.12.78c.04.34-.1.59-.39.7-.07.03-.14.04-.22.04-.2,0-.38-.1-.49-.27-.05-.08-.09-.19-.12-.32,0,0-.23-1.49-.3-1.94-.15.2-.28.38-.4.56h0s0,.03,0,.12l.34,2.23c.02.17.02.31-.02.43-.08.24-.3.39-.55.39-.35-.04-.56-.26-.6-.54-.06-.34-.11-.69-.17-1.04l-.03-.19-.99,1.35c-.14.19-.32.29-.51.29-.12,0-.25-.04-.36-.12-.14-.1-.22-.23-.24-.38-.03-.17.02-.34.14-.51l1.01-1.37h0c-.11.03-.23.05-.35.08l-.87.14s-.1,0-.11,0c-.32,0-.58-.2-.63-.49-.03-.16,0-.33.1-.45.1-.14.26-.23.44-.25.74-.12,1.49-.24,2.24-.35.14-.02.22-.07.3-.17.09-.14.19-.28.3-.43l-2,.31s-.11.01-.12.01c-.19,0-.36-.09-.48-.25-.14-.18-.16-.4-.05-.61.09-.19.26-.31.51-.35l3.02-.47c.11-.01.17-.05.22-.12.12-.18.25-.34.38-.52l.08-.1h-1.89c-.33,0-.55-.13-.65-.39-.13-.3.02-.53.19-.71l1.25-1.36-.13-.02c-.27-.03-.53-.06-.79-.08,0,0-2.46,1.98-2.46,1.98-.14.12-.3.18-.46.18-.17,0-.33-.07-.45-.22-.1-.12-.15-.26-.14-.41.02-.18.12-.35.28-.49l1.53-1.23c-.24-.03-.47-.05-.7-.06,0,0-.11.06-.11.07l-1.79,1.45c-.13.11-.27.17-.42.17-.08,0-.16-.02-.25-.06-.22-.1-.35-.28-.37-.51-.02-.28.16-.45.29-.55l.93-.75-1.22-.13c-.16-.01-.31-.03-.47-.05-.2-.03-.36-.12-.46-.25-.09-.12-.13-.27-.1-.42.04-.33.28-.54.61-.54.47.04.86.08,1.25.13l.52.06-.79-.99c-.22-.29-.17-.64.1-.86.11-.09.24-.13.37-.13.18,0,.36.09.48.24l1.49,1.84s.09.07.14.08c.2.03.4.05.62.08l-.93-1.16c-.12-.14-.24-.29-.35-.44-.2-.27-.16-.64.09-.84.12-.09.25-.14.39-.14.18,0,.35.08.47.23l1.96,2.43s.13.09.2.1c.24.03.49.06.75.09h.02s-.97-1.69-.97-1.69c-.13-.23-.13-.46.02-.67.12-.17.29-.26.49-.26.05,0,.11,0,.16.02l1.89.42c-.06-.14-.12-.28-.17-.42-.09-.3-.27-.47-.6-.59-.56-.2-1.12-.41-1.67-.63l-.83-.32c-.2-.08-.4-.19-.47-.43-.07-.23-.01-.44.16-.61.12-.11.25-.17.4-.17.08,0,.15.02.23.04l1.9.73-.04-.08c-.09-.21-.18-.4-.27-.59l-.87-.32-1.33-.51c-.4-.16-.57-.47-.44-.81.1-.25.29-.39.54-.39.1,0,.22.02.33.07l1.09.42-.44-1.02c-.08-.18-.17-.36-.24-.54-.14-.34-.01-.68.3-.82.08-.04.16-.05.24-.05.24,0,.45.15.56.39.24.51.47,1.04.69,1.56l.33-.84c.04-.1.08-.21.12-.3.11-.27.32-.43.57-.43.07,0,.14.01.21.04.35.14.48.47.34.84,0,0-.69,1.79-.83,2.16-.02.06-.02.15,0,.21.06.17.14.33.22.5l.02.04c.22-.56.44-1.12.65-1.67l.08-.19c.1-.25.33-.42.58-.42.28.01.51.19.56.43.03.12.02.29-.03.45-.33.88-.67,1.74-1,2.6l-.09.24c-.04.1-.04.18,0,.28.08.18.16.36.25.55l.06.14s.24-.41.34-.59c.14-.24.28-.47.41-.71l.21-.37c.16-.28.37-.33.52-.33.34.03.53.19.62.46l.58,1.84.02-.03c.09-.13.17-.25.27-.36.2-.21.25-.43.18-.78-.13-.73-.24-1.46-.35-2.19l-.08-.54c-.06-.38.15-.68.5-.74h.02c.4,0,.62.22.67.55.11.65.21,1.31.31,1.96,0,0,.32-.44.41-.57,0,0,0-.07,0-.09-.12-.76-.24-1.52-.35-2.28-.02-.15,0-.31.04-.43.08-.22.29-.36.53-.36.36.05.57.27.62.55l.19,1.22,1.01-1.38c.13-.17.3-.26.49-.26.13,0,.25.04.36.12.28.21.33.56.13.85l-1.01,1.39,1.17-.18s.1-.01.15-.01c.34,0,.58.19.62.49.03.17,0,.33-.1.46-.1.14-.27.23-.48.26-.74.12-1.49.24-2.23.34-.11.02-.17.05-.23.14-.1.15-.21.3-.33.46.68-.1,1.31-.2,1.95-.3.04,0,.09-.01.13-.01.32,0,.57.2.62.5.03.16,0,.31-.1.44-.1.14-.27.24-.47.27l-3.05.48s-.12.05-.15.09c-.16.2-.31.41-.47.63v.02s.82,0,.82,0c0,0,1.07,0,1.07,0,.31,0,.53.14.63.39.13.3-.03.54-.17.7-.35.38-.7.75-1.04,1.13l-.23.26h0c.31.04.61.07.92.09,0,0,1.67-1.34,2.46-1.98.14-.12.28-.17.43-.17.09,0,.18.02.27.07.2.1.32.28.34.47.02.21-.07.41-.25.56l-1.56,1.25c.25.03.49.05.73.07l1.84-1.49c.1-.08.25-.19.44-.19.08,0,.17.02.25.06.2.09.33.26.35.46.03.21-.07.43-.27.6l-.95.76c.47.05,1.68.18,1.68.18.37.04.61.31.58.65-.03.33-.29.55-.63.55,0,0-1.46-.15-1.75-.18l.58.73.2.24c.23.29.19.65-.09.88-.11.09-.23.13-.36.13-.18,0-.36-.09-.49-.25l-.5-.61c-.33-.41-.66-.82-1-1.22-.03-.04-.09-.07-.14-.08-.19-.03-.38-.05-.59-.07h-.02c.05.06.49.6.49.6.26.32.52.64.77.96.12.16.17.35.14.52-.03.17-.14.31-.3.41-.1.05-.2.08-.29.08-.19,0-.37-.1-.5-.27l-1.48-1.83c-.05-.07-.1-.14-.15-.21-.12-.17-.23-.34-.38-.42-.15-.08-.34-.09-.55-.1-.09,0-.18,0-.27-.02-.02,0-.05,0-.07,0,.08.15.16.29.25.44.24.41.47.81.71,1.22.18.32.09.56-.02.71-.12.16-.28.24-.48.24-.05,0-.11,0-.17-.02l-1.89-.41s.37.84.37.84c.01,0,.06.02.08.02.07.02.11.04.15.06.88.34,1.79.69,2.69,1.04.51.21.52.56.47.75-.07.28-.3.46-.58.46-.08,0-.16-.01-.24-.04-.27-.1-.54-.21-.81-.31l-1.08-.42.03.07c.09.2.17.4.27.59l.55.2c.36.14.73.28,1.09.43.13.05.27.1.41.16l.21.08c.18.07.32.19.39.34.06.14.06.29,0,.43-.12.27-.32.4-.56.4-.09,0-.19-.02-.28-.06l-1.13-.44.68,1.54c.15.36.03.7-.3.84-.08.04-.16.06-.24.06ZM20.42,11.81c-.14.19-.28.38-.42.56-.09.11-.11.19-.06.33.13.37.25.75.37,1.15l.03.09.22-.38c.18-.3.35-.6.52-.9l-.48-1.1-.18.25ZM21.74,11.14c.09.19.18.38.24.57.11.37.31.53.68.57.28.03.55.1.84.17.04.01.09.02.14.03-.25-.44-.5-.86-.74-1.27-.31-.04-.62-.07-.94-.11l-.24-.03.03.06ZM18.03,11.81c.15,0,.3,0,.46.02.04,0,.09,0,.12,0,.26,0,.43-.11.58-.37.11-.19.24-.37.39-.55l.04-.06c-.42-.05-.8-.09-1.19-.12l-1,1.09s.46,0,.6,0ZM23.03,10c.21-.22.67-.73.67-.73l.32-.36s-1.42,0-1.42,0c-.03,0-.06.01-.07.02-.17.23-.35.46-.52.71l-.17.24s.94.1,1.19.13ZM18.53,9.47c.38.08.72.12,1.08.16l.14.02-.15-.34c-.1-.24-.2-.47-.31-.7-.01-.02-.06-.06-.1-.07-.3-.07-.61-.14-.91-.21l-.46-.1.72,1.24ZM21.07,6.86c-.17.31-.33.6-.52.88-.16.24-.17.42-.04.65.11.2.2.42.3.64l.05.12c.25-.34.48-.65.7-.96l-.16-.52-.29-.89-.04.08Z"/>
            <path class="cls-1" d="M16.48.25c.18,0,.35.11.44.31.25.54.49,1.08.72,1.63,0,.01,0,.03.02.04.02.04.04.08.08.16.13-.34.25-.64.37-.95.06-.15.11-.31.18-.46.09-.23.27-.36.46-.36.05,0,.11.01.16.03.27.11.39.37.27.68-.28.73-.56,1.44-.83,2.16-.03.09-.03.21,0,.3.1.26.22.51.35.8.04-.07.06-.11.07-.15.26-.66.52-1.32.77-1.97.08-.21.27-.34.46-.34,0,0,0,0,0,0,.2,0,.39.14.44.33.03.12.01.27-.02.38-.36.95-.73,1.89-1.09,2.84-.06.13-.05.25,0,.37.14.29.26.58.41.91.17-.29.32-.55.46-.8.21-.36.41-.72.62-1.08.1-.17.23-.27.41-.27.02,0,.04,0,.07,0,.22.02.36.16.43.37.2.63.4,1.26.6,1.89.01.04.04.09.07.17.15-.2.26-.4.42-.56.25-.27.28-.55.22-.89-.16-.9-.29-1.81-.43-2.72-.05-.31.12-.55.4-.59.03,0,.05,0,.08,0,.24,0,.43.17.47.46.11.67.21,1.35.32,2.02.01.06.02.12.05.23.21-.3.4-.55.58-.81.03-.04.02-.13.01-.19-.12-.76-.24-1.52-.35-2.27-.02-.12-.01-.26.03-.37.07-.18.24-.28.41-.28.03,0,.05,0,.08,0,.21.03.38.2.42.44.07.44.14.87.2,1.3,0,.06.02.11.04.21.14-.19.25-.35.36-.5.27-.37.54-.75.81-1.11.11-.14.25-.21.39-.21.1,0,.2.03.29.1.22.16.27.44.1.67-.38.53-.77,1.06-1.18,1.62.08,0,.14,0,.19-.02.43-.06.85-.13,1.26-.19.04,0,.09,0,.13,0,.27,0,.46.14.5.38.05.3-.13.53-.48.58-.75.12-1.49.24-2.23.34-.14.02-.24.07-.32.19-.15.22-.31.43-.49.68.08,0,.13,0,.18,0,.69-.11,1.37-.22,2.06-.32.04,0,.07,0,.11,0,.26,0,.46.15.5.39.05.28-.14.52-.46.57-1.02.16-2.03.32-3.05.48-.08.02-.18.07-.23.14-.21.26-.4.53-.62.83.08,0,.13.01.18.01,0,0,.01,0,.02,0,.3,0,.6,0,.89,0,.35,0,.7,0,1.05,0,0,0,.01,0,.02,0,.23,0,.41.1.5.31.1.22,0,.4-.15.57-.45.48-.89.97-1.33,1.45-.02.03-.05.06-.08.12.4.04.78.09,1.15.11,0,0,0,0,0,0,.05,0,.12-.06.16-.1.8-.63,1.59-1.27,2.38-1.91.11-.09.23-.15.35-.15.07,0,.14.02.21.05.34.18.37.57.06.83-.55.44-1.1.89-1.66,1.33-.03.02-.06.05-.13.11.36.04.69.08,1.02.1,0,0,0,0,0,0,.04,0,.1-.05.14-.08.59-.48,1.19-.96,1.79-1.44.11-.09.23-.16.36-.16.06,0,.13.02.2.05.36.17.39.58.06.85-.32.26-.64.52-.97.77-.06.05-.12.1-.2.17.58.06,1.12.12,1.67.18.1.01.2.02.29.04.31.04.5.25.47.52-.03.27-.23.44-.51.44-.02,0-.04,0-.06,0-.58-.06-1.16-.13-1.74-.18-.07-.01-.13,0-.24-.02.27.35.52.65.77.96.07.08.14.16.2.24.18.24.15.52-.07.7-.09.07-.18.1-.28.1-.14,0-.28-.07-.39-.2-.5-.61-.99-1.23-1.5-1.84-.05-.06-.14-.11-.22-.12-.29-.04-.57-.07-.91-.1.12.16.22.29.32.41.37.47.75.92,1.12,1.39.21.27.15.58-.12.74-.08.04-.15.06-.23.06-.15,0-.29-.07-.41-.22-.5-.61-.99-1.22-1.48-1.83-.18-.23-.33-.53-.57-.66-.24-.13-.57-.1-.86-.13-.09-.01-.18-.02-.3-.03.12.23.24.44.36.64.24.41.47.81.71,1.22.11.19.13.39,0,.57-.1.13-.23.19-.38.19-.05,0-.09,0-.14-.02-.62-.14-1.25-.27-1.86-.41-.07-.02-.15-.03-.26-.05.07.15.13.3.19.43.09.21.19.42.28.62.03.04.11.07.16.09.04.02.08.03.12.05.9.34,1.81.69,2.7,1.04.32.13.46.33.4.6-.06.22-.24.36-.46.36-.06,0-.13-.01-.19-.04-.41-.15-.81-.31-1.22-.47-.25-.1-.5-.19-.76-.29-.05-.02-.1-.03-.19-.06.15.33.28.64.42.93.02.04.08.05.13.08.52.2,1.05.4,1.57.62.21.07.41.16.62.24.29.11.42.36.32.62,0,.01,0,.03-.02.04-.08.18-.24.27-.42.27-.07,0-.15-.02-.24-.05-.45-.18-.91-.35-1.41-.54.16.36.29.67.43.99.12.27.24.55.36.82.12.3.03.56-.24.68-.06.03-.13.04-.19.04-.18,0-.35-.12-.45-.33-.26-.59-.53-1.18-.81-1.82-.1.25-.18.47-.27.69-.09.24-.18.49-.28.73-.09.22-.27.36-.46.36-.05,0-.11-.01-.16-.03-.27-.1-.39-.37-.28-.66.27-.72.56-1.44.83-2.16.03-.09.03-.23,0-.33-.09-.26-.22-.5-.35-.8-.11.27-.2.49-.29.72-.18.46-.35.93-.54,1.39-.09.24-.27.37-.46.37-.05,0-.11-.01-.17-.03-.27-.11-.38-.38-.27-.68.37-.95.73-1.9,1.1-2.84.05-.14.05-.24-.02-.37-.14-.29-.26-.58-.4-.91-.17.3-.33.56-.48.82-.21.36-.41.72-.62,1.08-.09.16-.23.26-.4.26-.02,0-.04,0-.07,0-.22-.03-.36-.15-.42-.36-.21-.63-.4-1.26-.61-1.89-.01-.04-.03-.09-.07-.18-.17.23-.3.44-.47.63-.2.21-.23.44-.18.73.17.93.3,1.88.45,2.81.04.28-.08.48-.31.57-.06.02-.11.03-.17.03-.15,0-.3-.07-.38-.21-.05-.08-.08-.18-.1-.27-.11-.68-.21-1.36-.32-2.04,0-.04-.01-.09-.03-.19-.21.29-.41.54-.58.8-.03.05-.02.14-.01.21.11.75.23,1.49.34,2.23.02.12.02.25-.02.37-.06.19-.24.31-.44.31-.02,0-.04,0-.06,0-.21-.03-.38-.2-.42-.43-.08-.45-.15-.91-.22-1.36,0-.04-.01-.07-.03-.15-.05.06-.08.09-.11.13-.35.48-.71.96-1.06,1.45-.12.16-.26.24-.41.24-.1,0-.19-.03-.28-.1-.24-.17-.27-.45-.07-.71.38-.52.76-1.03,1.14-1.55l-.02-.07c-.19.04-.39.09-.58.13-.29.05-.58.09-.87.14-.03,0-.06,0-.09,0-.26,0-.46-.16-.5-.39-.05-.28.14-.52.44-.56.75-.12,1.49-.24,2.24-.35.17-.02.28-.09.38-.23.14-.22.29-.41.48-.66-.12.02-.2.02-.27.03-.68.11-1.35.21-2.02.31-.03,0-.07,0-.1,0-.15,0-.28-.07-.38-.21-.11-.15-.12-.32-.04-.48.08-.17.23-.25.42-.28,1.01-.15,2.01-.31,3.02-.47.13-.02.23-.06.3-.18.18-.26.38-.52.6-.81-.14,0-.23,0-.32,0-.6,0-1.21,0-1.81,0,0,0,0,0-.01,0-.24,0-.43-.08-.52-.31-.1-.24.01-.41.17-.58.44-.48.88-.95,1.32-1.43.02-.03.04-.07.08-.12-.4-.04-.77-.09-1.15-.12,0,0,0,0,0,0-.05,0-.12.06-.17.1-.79.64-1.58,1.27-2.37,1.91-.13.1-.26.15-.38.15-.13,0-.26-.06-.36-.17-.18-.21-.13-.51.13-.72.54-.44,1.08-.87,1.62-1.31.03-.03.06-.06.13-.12-.35-.04-.67-.08-.99-.1,0,0,0,0-.01,0-.06,0-.12.05-.17.09-.6.49-1.21.97-1.8,1.45-.1.09-.22.14-.34.14-.06,0-.13-.01-.19-.04-.17-.08-.28-.21-.29-.41-.01-.2.1-.33.24-.45.38-.3.75-.61,1.17-.94-.49-.05-.94-.1-1.38-.15-.2-.02-.4-.04-.6-.06-.3-.04-.5-.26-.46-.53.03-.26.22-.43.49-.43.02,0,.05,0,.07,0,.58.06,1.15.13,1.73.19.06,0,.13,0,.24.02-.24-.3-.45-.57-.67-.84-.1-.13-.21-.25-.31-.38-.17-.23-.14-.51.08-.68.09-.07.19-.11.29-.11.14,0,.28.07.39.19.5.61.99,1.23,1.49,1.84.05.07.15.11.22.13.29.04.58.07.92.11-.35-.44-.67-.83-.99-1.23-.16-.19-.32-.39-.48-.59-.16-.22-.13-.51.07-.67.1-.07.21-.11.31-.11.14,0,.27.06.37.19.66.81,1.31,1.62,1.96,2.43.07.07.18.13.28.15.32.05.66.08,1.02.11-.27-.47-.52-.9-.77-1.33-.11-.19-.22-.37-.32-.56-.1-.18-.11-.36.01-.53.1-.14.23-.2.39-.2.04,0,.09,0,.13.02.69.15,1.4.31,2.13.47-.1-.23-.2-.42-.26-.63-.11-.35-.33-.55-.68-.67-.84-.29-1.67-.64-2.5-.95-.18-.07-.34-.16-.4-.35-.05-.18-.01-.35.13-.49.09-.09.2-.14.32-.14.06,0,.12.01.19.04.66.25,1.32.51,1.98.76.05.02.1.03.2.07-.16-.34-.29-.65-.43-.95-.02-.04-.09-.05-.14-.07-.71-.27-1.41-.54-2.12-.82-.34-.13-.48-.37-.37-.65.08-.2.22-.31.43-.31.09,0,.18.02.29.06.39.15.78.3,1.18.45.05.02.1.04.19.07-.2-.45-.38-.87-.56-1.29-.08-.18-.17-.35-.24-.53-.12-.28-.01-.55.24-.66.06-.03.13-.04.19-.04M20.84,9.41c.29-.4.56-.77.83-1.14.03-.04.01-.13,0-.18-.12-.38-.25-.77-.37-1.16-.05-.14-.09-.27-.15-.45-.24.43-.45.83-.69,1.19-.18.27-.21.5-.05.78.16.29.28.61.43.95M19.95,9.79c-.2-.44-.36-.84-.55-1.24-.03-.06-.11-.12-.19-.14-.49-.12-.99-.22-1.47-.33-.05,0-.09,0-.16-.01.29.5.57.98.85,1.47.03.04.08.1.13.1.45.06.9.1,1.39.15M22.6,8.78s0,0,0,0c-.06,0-.13.02-.16.07-.27.36-.53.72-.83,1.12.5.05.95.11,1.41.15,0,0,0,0,0,0,.04,0,.1-.04.14-.08.22-.23.43-.46.64-.69.16-.18.32-.36.5-.57-.34,0-.66,0-.97,0-.24,0-.48,0-.72,0M17.33,11.94c.23,0,.46-.01.69-.01.15,0,.3,0,.45.02.05,0,.09,0,.14,0,.31,0,.52-.14.69-.43.15-.26.35-.49.56-.77-.5-.06-.96-.11-1.41-.15,0,0,0,0-.01,0-.04,0-.09.03-.12.06-.38.41-.76.83-1.16,1.26.08,0,.13,0,.18.01M23.89,12.67c-.31-.53-.59-1.03-.88-1.52-.01-.03-.05-.06-.09-.06-.46-.06-.91-.1-1.4-.16.13.29.27.54.35.82.12.4.35.61.78.66.41.05.8.17,1.24.26M20.31,14.25c.31-.53.6-1.03.88-1.52.02-.03.02-.09,0-.13-.18-.41-.36-.82-.56-1.28-.26.35-.48.67-.72.98-.12.14-.14.27-.08.45.17.48.32.98.48,1.51M16.48,0h0c-.1,0-.2.02-.29.06-.38.18-.54.58-.37.99.08.18.16.36.24.54l.27.63.05.11-.81-.31c-.13-.05-.26-.08-.38-.08-.31,0-.55.17-.66.47-.15.4.05.78.51.97l1.92.74.21.08s.01,0,.04.02c.05.11.1.22.15.33l-.62-.24-.99-.38c-.09-.04-.19-.05-.28-.05-.18,0-.35.07-.49.21-.2.2-.27.47-.19.74.1.33.4.45.54.51.28.11.56.22.84.33.54.21,1.11.43,1.67.63.29.1.45.25.52.5.02.07.05.14.08.21l-.31-.07c-.46-.1-.9-.2-1.34-.3-.06-.01-.13-.02-.19-.02-.24,0-.44.11-.59.3-.18.25-.18.53-.03.81l.16.28.16.28c.18.3.35.6.53.91-.18-.02-.35-.04-.53-.06-.05,0-.1-.04-.13-.07-.32-.39-.65-.8-.97-1.2-.33-.41-.65-.81-.98-1.21-.15-.18-.35-.28-.57-.28-.16,0-.32.06-.46.16-.31.25-.36.69-.12,1.02.11.14.22.28.33.42l.15.18.48.6.13.16c-.11-.01-.21-.03-.31-.04-.02,0-.05-.02-.07-.04l-.74-.92-.75-.92c-.15-.18-.36-.29-.58-.29-.16,0-.32.06-.45.16-.32.26-.37.69-.12,1.02.05.06.1.12.15.18.06.07.11.14.17.2.1.13.2.25.3.38l-.16-.02c-.41-.05-.82-.09-1.23-.13-.03,0-.06,0-.09,0-.4,0-.69.26-.74.65-.03.18.02.36.13.5.12.16.31.27.54.3.16.02.32.04.47.05h.14c.26.04.51.07.78.1l-.44.35-.26.21c-.15.12-.35.33-.33.66.02.28.17.5.44.62.1.04.2.07.29.07.17,0,.34-.07.5-.2l.64-.52c.39-.31.77-.62,1.16-.93.02-.01.03-.02.04-.03.12,0,.24.02.36.03l-.48.39-.81.65c-.19.16-.31.36-.33.57-.02.18.04.36.16.51.15.17.34.26.55.26.18,0,.37-.07.54-.21.79-.63,1.58-1.27,2.37-1.91.02-.02.04-.03.05-.04.2.01.41.04.62.06l-1.09,1.18c-.12.13-.4.43-.22.85.09.21.29.47.75.47.31,0,.62,0,.92,0,.24,0,.49,0,.73,0-.11.15-.21.29-.31.43-.03.05-.05.06-.13.07-.51.08-1.01.16-1.52.23-.5.08-1,.16-1.5.23-.37.05-.53.26-.61.43-.12.25-.1.51.07.73.15.2.35.3.58.3.05,0,.09,0,.14-.01l1.02-.16.68-.11c-.05.07-.09.13-.13.2-.05.07-.1.1-.2.11-.75.11-1.5.23-2.24.35-.21.03-.4.14-.52.3-.11.16-.16.35-.13.55.06.35.37.6.75.6.04,0,.08,0,.13,0l.45-.07.43-.07s.03,0,.04,0l-.81,1.11c-.14.19-.2.4-.17.6.03.18.13.34.29.46.13.1.28.15.43.15.23,0,.45-.12.61-.34l.5-.69.31-.43c.05.31.1.63.15.94.05.33.31.59.63.64.03,0,.06,0,.09,0,.31,0,.58-.19.67-.48.04-.13.05-.3.03-.48-.12-.74-.23-1.49-.34-2.23,0-.03,0-.05,0-.06.07-.1.13-.19.21-.29.05.34.11.69.16,1.03l.09.61c.02.15.07.27.14.37.12.2.34.32.59.32.09,0,.18-.02.26-.05.34-.13.51-.44.46-.83l-.11-.75c-.11-.69-.21-1.39-.34-2.08-.04-.24,0-.38.12-.52.07-.08.14-.17.2-.26l.11.34c.13.42.27.85.41,1.27.09.3.32.49.63.53.03,0,.06,0,.1,0,.25,0,.48-.14.62-.38.14-.24.28-.48.41-.72l.2-.36c.07-.13.15-.26.23-.39.07.16.14.32.21.47.03.07.04.1,0,.18-.35.89-.7,1.79-1.05,2.69l-.06.14c-.17.43,0,.84.41,1,.09.03.17.05.26.05.3,0,.57-.2.69-.53.13-.32.25-.65.38-.97l.16-.42.07-.18c.04.08.07.17.1.25.02.06.02.13,0,.16-.14.36-.28.72-.41,1.08-.14.36-.28.72-.42,1.08-.08.21-.08.43,0,.61.08.17.23.31.42.38.08.03.16.05.25.05.3,0,.57-.2.69-.51.07-.17.14-.35.2-.52l.08-.22.05-.12h0s.56,1.27.56,1.27c.14.3.39.48.68.48.1,0,.2-.02.3-.07.39-.17.54-.59.36-1l-.18-.41-.18-.41-.19-.44.43.17.42.16c.11.04.22.06.33.06.29,0,.52-.15.65-.42,0-.01.01-.04.02-.06h0c.07-.18.06-.36-.01-.53-.08-.18-.24-.33-.46-.41l-.19-.08c-.14-.06-.29-.12-.43-.17-.35-.14-.72-.29-1.09-.43l-.48-.19h-.01c-.06-.11-.11-.22-.16-.34l.39.15.4.16c.27.11.54.21.82.31.09.03.18.05.28.05.34,0,.62-.22.7-.55.04-.19.08-.65-.55-.9-.9-.35-1.8-.7-2.7-1.05-.02-.01-.06-.03-.11-.05-.03-.01-.05-.02-.06-.02l-.24-.55.57.12c.36.08.72.16,1.08.24.07.01.13.02.2.02.24,0,.44-.1.58-.29.19-.26.19-.56.02-.85-.23-.4-.46-.79-.69-1.19-.05-.09-.1-.18-.15-.26.04,0,.07,0,.11,0,.19,0,.38.01.49.08.13.07.23.22.34.38.05.07.1.15.16.21l.74.92.74.92c.16.2.37.32.6.32.12,0,.24-.03.35-.09.2-.12.32-.29.36-.49.04-.21-.02-.43-.16-.62-.26-.33-.52-.66-.79-.99l-.28-.35c.1.01.21.02.31.04.02,0,.05.02.06.03.32.39.63.77.95,1.16l.56.69c.15.19.37.3.59.3.16,0,.31-.05.44-.16.33-.27.38-.71.11-1.05-.06-.08-.13-.16-.2-.24-.13-.17-.27-.33-.4-.5.2.02.4.04.6.06.26.03.53.06.79.08.03,0,.06,0,.08,0,.41,0,.72-.27.76-.67.04-.4-.25-.74-.69-.79l-.15-.02-.14-.02c-.37-.04-.73-.08-1.09-.12l.71-.57c.23-.19.35-.45.32-.71-.03-.24-.19-.44-.43-.56-.1-.05-.2-.07-.31-.07-.23,0-.41.12-.52.22l-.05.04c-.58.47-1.16.94-1.74,1.4,0,0-.02.01-.04.03-.12,0-.24-.02-.36-.03l.49-.4.83-.67c.22-.18.33-.42.3-.67-.02-.24-.17-.45-.4-.57-.11-.06-.22-.08-.33-.08-.17,0-.34.07-.51.2-.81.66-1.59,1.28-2.38,1.91-.03.02-.04.03-.05.04-.2-.01-.41-.03-.62-.06.37-.4.73-.8,1.11-1.2.1-.11.37-.42.19-.84-.12-.3-.38-.46-.72-.46-.37,0-.72,0-1.07,0-.2,0-.41,0-.61,0,.11-.15.22-.3.34-.44.02-.03.06-.05.08-.06l1.52-.24,1.53-.24c.23-.04.43-.15.55-.32.11-.15.15-.34.12-.54-.06-.36-.36-.6-.75-.6-.05,0-.1,0-.15.01-.55.08-1.1.17-1.65.26.05-.07.1-.15.15-.22.03-.05.06-.07.14-.08.75-.11,1.49-.22,2.24-.34.24-.03.43-.14.56-.31.11-.16.16-.35.12-.55-.06-.36-.35-.59-.75-.59-.05,0-.11,0-.16.01-.22.03-.45.07-.67.1-.07.01-.14.02-.21.03l.84-1.15c.25-.35.18-.78-.15-1.02-.13-.1-.28-.15-.43-.15-.23,0-.44.11-.59.31l-.72.98-.1.14-.02.03-.03-.18-.12-.74c-.05-.34-.31-.6-.63-.64-.03,0-.07,0-.11,0-.29,0-.54.17-.65.44-.08.19-.06.39-.05.49.11.75.23,1.5.35,2.25,0,.02,0,.05,0,.07-.07.1-.14.19-.21.29-.09-.55-.17-1.11-.26-1.67-.06-.4-.35-.67-.72-.67-.04,0-.08,0-.12,0-.21.03-.38.14-.49.3-.11.16-.15.36-.12.58l.08.54c.11.72.22,1.46.35,2.19.06.31.02.5-.15.67-.06.06-.11.13-.16.19l-.2-.65-.3-.95c-.1-.32-.33-.51-.64-.54-.03,0-.06,0-.09,0-.18,0-.44.07-.63.4l-.21.36c-.13.24-.27.47-.41.71-.07.13-.14.25-.22.38-.07-.16-.14-.32-.21-.47-.03-.07-.03-.11,0-.17.37-.95.74-1.9,1.1-2.84.03-.09.09-.31.03-.53-.06-.28-.35-.5-.67-.51h0c-.32,0-.59.19-.71.49-.21.53-.41,1.06-.62,1.59-.04-.09-.08-.18-.11-.26-.01-.04-.01-.1,0-.12.14-.37.28-.74.43-1.11.13-.35.27-.7.4-1.05.16-.42,0-.83-.41-1-.09-.03-.17-.05-.26-.05-.3,0-.56.2-.69.51-.04.1-.08.21-.12.31l-.06.15c-.05.13-.1.26-.15.4-.19-.43-.38-.86-.58-1.29-.13-.28-.38-.46-.67-.46h0ZM20.9,8.91c-.08-.2-.17-.39-.27-.58-.11-.19-.1-.32.03-.52.15-.23.29-.47.43-.72l.34,1.07s0,0,0,0c-.17.24-.35.49-.53.74h0ZM18.64,9.4l-.02-.03c-.18-.32-.36-.63-.55-.95l.19.04c.3.07.6.13.9.2.12.22.22.45.33.69.02.05.04.1.06.15-.31-.03-.61-.07-.91-.1h0ZM22.61,9.03h.72s.42,0,.42,0c-.05.05-.09.1-.14.15l-.1.11c-.18.19-.35.38-.53.57,0,0,0,0,0,0-.22-.02-.45-.05-.69-.07-.07,0-.14-.02-.22-.02l.03-.04c.18-.24.34-.47.52-.7h0ZM17.72,11.69l.11-.12c.22-.24.43-.47.65-.71.29.03.59.06.91.09-.11.15-.22.29-.31.45-.15.25-.29.31-.47.31-.03,0-.07,0-.11,0-.16-.02-.32-.02-.47-.02-.1,0-.2,0-.3,0h0ZM23.38,12.3c-.24-.06-.47-.11-.71-.13-.32-.03-.47-.17-.57-.48-.05-.16-.11-.3-.18-.45.31.03.6.06.9.1.19.33.37.64.56.97h0ZM20.38,13.63c-.1-.33-.21-.66-.32-.97-.03-.1-.02-.13.04-.2.15-.2.29-.39.43-.58.01-.02.03-.04.04-.06.13.29.25.56.37.84-.16.29-.33.58-.5.87l-.06.11h0Z"/>
          </g>
          <path class="cls-5" d="M25.79,16.56c-.41-.15-.81-.31-1.22-.47-.43-.5-.85-1-1.23-1.51.9.34,1.81.69,2.7,1.04.32.13.46.33.4.6-.07.29-.36.44-.65.33Z"/>
          <path class="cls-6" d="M26.7,18.21s0,.03-.02.04c-.32-.3-.63-.6-.93-.9.21.07.41.16.62.24.29.11.42.36.32.62Z"/>
          <path class="cls-7" d="M31.67,11.53c.02-.27-.17-.48-.47-.52-.1-.01-.2-.02-.29-.04-.55-.05-1.09-.12-1.67-.18.08-.07.14-.13.2-.17.32-.26.64-.52.97-.77.33-.27.3-.68-.06-.85-.22-.11-.39-.03-.56.11-.6.48-1.19.96-1.79,1.44-.05.03-.11.09-.15.08-.33-.02-.66-.06-1.02-.1.07-.06.1-.09.13-.11.55-.44,1.1-.89,1.66-1.33.3-.25.28-.64-.06-.83-.21-.1-.39-.04-.56.09-.79.64-1.58,1.27-2.38,1.91-.05.04-.12.11-.17.1-.38-.02-.76-.07-1.15-.11.04-.06.06-.09.08-.12.44-.48.89-.97,1.33-1.45.15-.17.24-.34.15-.57-.09-.22-.28-.32-.52-.31-.65,0-1.3,0-1.95,0-.05,0-.11,0-.19-.01.22-.3.41-.57.62-.83.05-.07.15-.13.23-.14,1.02-.16,2.03-.32,3.05-.48.32-.05.51-.28.46-.57-.05-.28-.3-.43-.61-.38-.68.1-1.37.21-2.06.32-.05,0-.1,0-.18,0,.18-.24.34-.45.49-.68.08-.12.17-.17.32-.19.74-.11,1.49-.22,2.23-.34.34-.05.52-.28.48-.58-.05-.28-.29-.42-.63-.37-.42.06-.84.13-1.26.19-.05.01-.11,0-.19.02.41-.56.79-1.09,1.18-1.62.17-.24.12-.51-.1-.67s-.5-.12-.68.11c-.27.37-.54.74-.81,1.11-.11.15-.22.31-.36.5-.02-.1-.04-.15-.04-.21-.07-.43-.13-.86-.2-1.3-.04-.23-.21-.41-.42-.44-.2-.03-.41.07-.49.27-.04.11-.05.25-.03.37.11.75.23,1.51.35,2.27,0,.06.02.14-.01.19-.18.26-.38.51-.58.81-.02-.11-.04-.17-.05-.23-.1-.67-.21-1.35-.32-2.02-.05-.31-.27-.49-.55-.45-.28.04-.45.28-.4.59.14.91.27,1.82.43,2.72.07.35.04.63-.22.89-.15.16-.27.36-.42.56-.03-.08-.05-.12-.07-.17-.2-.63-.4-1.26-.6-1.89-.07-.22-.21-.35-.43-.37-.22-.03-.38.08-.48.27-.2.36-.4.72-.62,1.08-.14.26-.29.51-.46.8-.15-.33-.27-.63-.41-.91-.06-.13-.06-.24,0-.37.37-.94.74-1.89,1.09-2.84.04-.11.06-.26.02-.38-.04-.19-.24-.32-.44-.33-.2,0-.38.12-.47.34-.25.66-.51,1.31-.77,1.97-.02.04-.04.08-.07.15-.13-.29-.25-.54-.35-.8-.03-.09-.04-.21,0-.3.27-.72.56-1.44.83-2.16.12-.31,0-.57-.27-.68-.25-.1-.51.03-.62.33-.07.15-.12.31-.18.46-.12.31-.24.61-.37.95-.04-.08-.06-.12-.08-.16,0-.01,0-.03-.02-.04.82,3.65,2.35,7.75,5.14,11.63-.06-.14-.12-.29-.19-.43.11.02.19.03.26.05.62.14,1.24.27,1.86.41.21.05.39,0,.52-.17.14-.19.12-.38,0-.57-.24-.41-.48-.82-.71-1.22-.12-.2-.24-.42-.36-.64.12,0,.21.02.3.03.29.03.63,0,.86.13.24.13.39.43.57.66.5.61.99,1.22,1.48,1.83.18.23.42.28.64.16.27-.16.33-.48.12-.74-.37-.47-.74-.93-1.12-1.39-.1-.12-.2-.24-.32-.41.34.04.62.06.91.1.08.01.17.06.22.12.5.61,1,1.23,1.5,1.84.19.23.47.27.68.1.22-.18.25-.46.07-.7-.06-.08-.13-.16-.2-.24-.25-.31-.49-.62-.77-.96.11.01.17.01.24.02.58.06,1.15.13,1.74.18.31.03.54-.15.57-.44ZM20.84,9.41c-.15-.34-.27-.66-.43-.95-.16-.28-.13-.51.05-.78.25-.36.45-.77.69-1.19.06.18.11.32.15.45.12.38.25.77.37,1.16.01.06.03.14,0,.18-.26.37-.53.74-.83,1.14ZM22.44,8.85s.11-.07.17-.07c.55,0,1.1,0,1.69,0-.18.21-.34.39-.5.57-.21.23-.42.46-.64.69-.04.04-.1.08-.14.08-.46-.04-.91-.1-1.41-.15.29-.4.55-.76.83-1.12ZM23.89,12.67c-.44-.1-.84-.22-1.24-.26-.43-.05-.66-.26-.78-.66-.08-.27-.22-.53-.35-.82.49.05.95.1,1.4.16.03,0,.07.03.09.06.29.5.58.99.88,1.52Z"/>
        </g>
        <g>
          <g>
            <path class="cls-8" d="M6.2,9.6c0,.17-.01.35-.04.51-.24,1.42-1.48,2.51-2.97,2.51-1.67,0-3.02-1.35-3.02-3.02,0-.24.03-.48.08-.7.32-1.33,1.51-2.31,2.94-2.31,1.67,0,3.02,1.35,3.02,3.02Z"/>
            <path class="cls-1" d="M6.23,9.6C6.13,14.05.39,13.74,0,9.6c-.03-4.36,6.24-4.43,6.23,0h0ZM6.17,9.6c-.22-3.57-5.58-3.6-5.85,0-.17,3.81,5.74,3.54,5.85,0h0Z"/>
          </g>
          <path class="cls-3" d="M6.15,10.11c-.24,1.42-1.48,2.51-2.97,2.51-1.67,0-3.02-1.35-3.02-3.02,0-.24.03-.48.08-.7.19.7.86,1.96,2.52,2.25,1.77.31,2.95-.58,3.39-1.03Z"/>
          <ellipse class="cls-9" cx="3.18" cy="8.22" rx="1.29" ry="1.21"/>
        </g>
      </g>
    </g>
  </g>
</svg>