<?xml version="1.0" encoding="UTF-8"?>
<svg xmlns="http://www.w3.org/2000/svg" xmlns:xlink="http://www.w3.org/1999/xlink" viewBox="0 0 79.41 77.69">
  <defs>
    <style>
      .cls-1 {
        fill: url(#linear-gradient-4);
      }

      .cls-2 {
        fill: #f0d0b4;
        mix-blend-mode: multiply;
      }

      .cls-2, .cls-3 {
        opacity: .3;
      }

      .cls-4 {
        fill: #e8a589;
      }

      .cls-5 {
        fill: #f7cda8;
      }

      .cls-6 {
        isolation: isolate;
      }

      .cls-7 {
        fill: url(#linear-gradient);
      }

      .cls-7, .cls-8, .cls-9, .cls-10, .cls-11, .cls-3 {
        mix-blend-mode: overlay;
      }

      .cls-12 {
        fill: #f5d6c0;
      }

      .cls-8 {
        fill: url(#linear-gradient-2);
      }

      .cls-9 {
        fill: url(#linear-gradient-3);
      }

      .cls-10 {
        fill: url(#linear-gradient-6);
      }

      .cls-11 {
        fill: url(#linear-gradient-5);
      }

      .cls-3 {
        fill: #08050f;
      }

      .cls-13 {
        fill: #fcffff;
      }
    </style>
    <linearGradient id="linear-gradient" x1="-117.22" y1="92.15" x2="-106.72" y2="79.22" gradientTransform="translate(104.15 -65.55) rotate(-14.97)" gradientUnits="userSpaceOnUse">
      <stop offset="0" stop-color="#d5c9ff"/>
      <stop offset=".13" stop-color="#d4c8fe" stop-opacity=".98"/>
      <stop offset=".25" stop-color="#d4c8fb" stop-opacity=".94"/>
      <stop offset=".38" stop-color="#d3c8f7" stop-opacity=".86"/>
      <stop offset=".5" stop-color="#d1c8f0" stop-opacity=".75"/>
      <stop offset=".63" stop-color="#cfc8e9" stop-opacity=".61"/>
      <stop offset=".75" stop-color="#cdc7df" stop-opacity=".43"/>
      <stop offset=".88" stop-color="#cac7d3" stop-opacity=".23"/>
      <stop offset="1" stop-color="#c7c7c7" stop-opacity="0"/>
    </linearGradient>
    <linearGradient id="linear-gradient-2" x1="-90.86" y1="78.24" x2="-71.35" y2="58.94" xlink:href="#linear-gradient"/>
    <linearGradient id="linear-gradient-3" x1="-108.51" y1="66.93" x2="-116.73" y2="70.53" gradientTransform="translate(144.05 22.19) rotate(29.37)" xlink:href="#linear-gradient"/>
    <linearGradient id="linear-gradient-4" x1="-116.18" y1="73.83" x2="-115.01" y2="72.67" gradientTransform="translate(104.15 -65.55) rotate(-14.97)" gradientUnits="userSpaceOnUse">
      <stop offset="0" stop-color="#fff"/>
      <stop offset=".13" stop-color="#fefefe" stop-opacity=".98"/>
      <stop offset=".25" stop-color="#fbfbfb" stop-opacity=".94"/>
      <stop offset=".38" stop-color="#f7f7f7" stop-opacity=".86"/>
      <stop offset=".5" stop-color="#f0f0f0" stop-opacity=".75"/>
      <stop offset=".63" stop-color="#e9e9e9" stop-opacity=".61"/>
      <stop offset=".75" stop-color="#dfdfdf" stop-opacity=".43"/>
      <stop offset=".88" stop-color="#d3d3d3" stop-opacity=".23"/>
      <stop offset="1" stop-color="#c7c7c7" stop-opacity="0"/>
    </linearGradient>
    <linearGradient id="linear-gradient-5" x1="-118.87" y1="88.87" x2="-115.27" y2="76.36" xlink:href="#linear-gradient"/>
    <linearGradient id="linear-gradient-6" x1="-79.45" y1="40.18" x2="-83.83" y2="62.08" xlink:href="#linear-gradient"/>
  </defs>
  <g class="cls-6">
    <g id="Layer_2" data-name="Layer 2">
      <g id="Layer_1-2" data-name="Layer 1">
        <g>
          <g>
            <g>
              <path class="cls-12" d="M2.2,77.22c-.74,0-1.14-.3-1.35-.56-.38-.46-.47-1.16-.28-2.09.03-.13.06-.28.1-.43.36-1.31,1.19-3.03,2.47-5.1,5.18-8.39,8.36-21.59,8.39-21.73.06-.14,2.53-5.26,7.41-11.41,1.88-2.37,3.89-4.62,5.99-6.68,8.9-8.74,25.16-15.89,33.47-17.7.65-.14,1.31-.21,1.97-.21,4.84,0,8.71,3.9,10.59,6.23.96,1.18,1.48,2.06,1.51,2.1.08.14.09.3.02.45-.07.14-.21.24-.36.26-.06,0-6.05.75-8.63,1.87-1.19.51-1.99,1.23-2.75,1.92-.91.82-1.77,1.6-3.17,1.97-.27.07-.52.11-.75.11-.67,0-1.05-.3-1.26-.55-.16-.2-.27-.43-.33-.67-.61.87-1.5,1.94-2.64,2.74-.41.29-.82.44-1.24.44-.82,0-1.45-.56-1.89-1.2-.15,1.3-.54,2.91-1.57,3.6-.23.16-.49.24-.76.24-.98,0-1.91-1.13-2.59-2.23.06,2.44-.09,6.16-1.37,7.64-.31.35-.65.53-1.01.53h0c-.93,0-1.71-1.27-2.27-2.66-.06,2.7-.44,6.26-1.87,7.57-.32.29-.66.44-1,.44-.8,0-1.5-.8-2.12-2.39.06,4.38-.28,9.69-2.15,11.09-.52.39-1.06.59-1.59.59-.85,0-1.57-.51-2.13-1.16.27,1.91.33,4.28-.57,5.9-.49.89-1.22,1.46-2.17,1.72-.09.02-.19.04-.28.04h0c-.87,0-1.61-1.12-2.2-3.35-.05.98-.12,1.78-.18,2.39-.69,6.78-3.52,9.93-5.21,9.94h0c-.31,0-.57-.11-.75-.32-.52-.59-.71-3.95-.78-6.78-1.19,4.32-3.67,10.96-8.24,14.32-1.96,1.44-4.67,3.16-6.44,3.16Z"/>
              <path class="cls-4" d="M60.37,11.77c4.59,0,8.29,3.66,10.23,6.05.95,1.17,1.47,2.04,1.47,2.04,0,0-6.08.75-8.76,1.9-2.67,1.15-3.4,3.22-5.85,3.87-.24.06-.45.09-.63.09-1.63,0-1.17-2.23-1.13-2.39-.11.22-1.35,2.58-3.36,4-.35.25-.67.35-.97.35-1.49,0-2.29-2.62-2.29-2.62,0,0,.17,4.01-1.43,5.1-.16.11-.33.16-.5.16-1.5,0-3.17-3.92-3.17-3.92,0,0,.64,7.43-1.14,9.49-.22.26-.44.37-.66.37-1.51,0-2.8-5.43-2.8-5.43,0,0,.54,8.46-1.67,10.47-.24.22-.47.32-.69.32-1.63,0-2.62-5.48-2.78-6.35.09,1.29.9,13.15-1.77,15.14-.47.35-.91.49-1.31.49-2.03,0-3.24-3.66-3.24-3.66,0,0,2.7,8.94-1.76,10.13-.05.01-.11.02-.16.02-1.59,0-2.45-6.54-2.58-7.54,0,.66.05,3.86-.27,7.01-.7,6.81-3.54,9.51-4.75,9.51-.17,0-.31-.05-.4-.16-.73-.82-.69-9.99-.69-10.51-.11.64-2.18,13-8.96,17.98-2.75,2.02-4.9,3.07-6.16,3.07-1.02,0-1.46-.68-1.17-2.09.03-.13.06-.26.09-.41.33-1.2,1.11-2.85,2.42-4.97,5.28-8.55,8.45-21.87,8.45-21.87,0,0,2.41-5.05,7.32-11.23,1.69-2.13,3.67-4.4,5.95-6.64,9.06-8.9,25.46-15.88,33.24-17.58.64-.14,1.26-.2,1.87-.2M60.37,10.83h0c-.69,0-1.39.08-2.07.23-8.37,1.82-24.73,9.03-33.7,17.82-2.12,2.08-4.15,4.34-6.03,6.73-4.92,6.19-7.33,11.2-7.43,11.41-.03.06-.05.12-.07.19-.03.13-3.19,13.27-8.33,21.59-1.31,2.11-2.16,3.87-2.52,5.21-.05.18-.08.33-.11.46-.22,1.07-.09,1.91.38,2.48.27.33.79.73,1.71.73,1.52,0,3.78-1.09,6.71-3.25,2.97-2.18,5.42-5.88,7.29-11,.11-.29.21-.59.31-.87.13,2.07.37,3.78.79,4.27.28.31.67.48,1.11.48,1.92,0,4.95-3.21,5.68-10.36,0-.06.01-.13.02-.2.77,1.58,1.51,1.58,1.9,1.58.13,0,.27-.02.4-.05,1.08-.29,1.9-.94,2.46-1.94.77-1.38.88-3.26.75-4.97.45.29.97.48,1.54.48.64,0,1.27-.23,1.87-.68,1.74-1.29,2.27-5.42,2.34-9.55.6.79,1.17.95,1.65.95s.91-.19,1.32-.56c.32-.29,1.6-1.72,1.96-6.1.52.78,1.15,1.31,1.87,1.31.35,0,.87-.12,1.37-.69,1.12-1.3,1.44-4.12,1.48-6.48.62.71,1.34,1.24,2.12,1.24.37,0,.71-.11,1.02-.32.91-.62,1.38-1.79,1.62-2.95.43.37.95.62,1.58.62.51,0,1.02-.18,1.51-.52.92-.65,1.69-1.47,2.28-2.23.02.02.03.04.05.07.27.33.77.72,1.62.72.27,0,.56-.04.87-.12,1.51-.4,2.45-1.25,3.37-2.08.77-.7,1.5-1.35,2.62-1.84,2.53-1.09,8.45-1.83,8.51-1.83.31-.04.59-.23.73-.52.14-.28.13-.62-.04-.89-.02-.04-.57-.95-1.55-2.15-1.93-2.39-5.92-6.4-10.95-6.4h0Z"/>
            </g>
            <path class="cls-3" d="M72.06,19.86s-6.08.75-8.76,1.9c-2.67,1.15-3.4,3.22-5.85,3.87-2.37.62-1.8-2.12-1.77-2.3-.11.22-1.35,2.58-3.36,4-2.1,1.49-3.25-2.27-3.25-2.27,0,0,.17,4.01-1.43,5.1-1.6,1.09-3.66-3.77-3.66-3.77,0,0,.64,7.43-1.14,9.49-1.77,2.04-3.46-5.06-3.46-5.06,0,0,.54,8.46-1.67,10.47-2.09,1.91-3.35-5.36-3.47-6.09.07.91.96,13.17-1.76,15.2-2.81,2.1-4.55-3.16-4.55-3.16,0,0,2.7,8.94-1.76,10.13-1.74.47-2.67-6.98-2.74-7.61,0,.41.07,3.78-.26,7.09-.8,7.77-4.39,10.2-5.15,9.35-.73-.82-.69-9.99-.69-10.51-.11.64-2.18,13-8.96,17.98-5.17,3.79-8.22,4.16-7.24.57.91.48,2.75.46,6.44-2.18,6.5-4.65,9.6-20.35,10.23-20.44.62-.1.42,12.47,1.52,12.43,1.11-.03,2.56-6.18,3.24-10.5.68-4.33.82-7.13.82-7.13,0,0,1.9,10.09,3.63,7.92,1.72-2.18-.45-9.21.41-9.4.85-.19,2.23,4.98,4.24,3.61,2.01-1.36,1.87-14.95,2.17-16.33.29-1.39,2.36,6.88,3.36,6.61s1.66-10.09,2.2-10.37c.53-.29,1.25,6.43,2.62,6.02,1.37-.4,1.01-10.09,1.76-10.65.75-.56,1.99,4.51,3.24,3.63,1.24-.87,2.43-5.01,2.43-5.01,0,0,.88,2.61,2.45,2.3,1.57-.31,4.62-3.48,4.62-3.48,0,0,.48,2.87,2.29,1.99,1.82-.88,3.09-4.31,9.47-5.12.66-.08,1.46-.21,2.34-.35.95,1.17,1.47,2.04,1.47,2.04Z"/>
            <path class="cls-7" d="M24.9,42.31s-1.58,6.73-4.15,8.17c-2.56,1.45-2.8.14-2.8.14,0,0-.46,2.96-2.5,3.51-2.04.54-2.41.1-2.41.1,0,0-1.92,2.78-2.87,3.4-.95.61-.97,3.1-4.8,9.77-3.83,6.67-3.42,7.68.65,4.72,3.92-2.84,6.47-6.57,6.67-6.86-.15.42-2.75,7.17-9.46,9.08-.83.24-1.57.33-2.21.31.03-.13.06-.26.09-.41.33-1.2,1.11-2.85,2.42-4.97,5.28-8.55,8.45-21.87,8.45-21.87,0,0,2.41-5.05,7.32-11.23l5.59,6.12Z"/>
            <g>
              <path class="cls-13" d="M3.45,58.74c-.9,0-1.61-.31-2.05-.9-.59-.79-.65-1.98-.18-3.53.09-.29.2-.61.33-.94.73-1.82,2.03-3.96,3.88-6.35,1.54-2,2.9-3.91,4.06-5.68,2.03-3.1,3.05-5.21,3.56-6.44-1.2.82-2.35,1.41-3.35,1.7-.5.15-.96.22-1.37.22-.92,0-1.58-.38-1.86-1.08-.75-1.84,1.29-5.3,5.59-9.49,4.28-4.16,7.33-9.15,9.52-13.03.78-1.38,1.49-2.71,2.16-3.94,2.21-4.12,3.81-7.09,5.52-7.84,1.36-.59,2.24-.98,3.3-.98,1.83,0,3.9,1.13,9.82,4.62,3.11,1.83,7.69,3.29,13.6,4.33,6.74,1.19,12.84,1.41,12.9,1.41h.13c7.7,0,9.26.92,9.75,1.71.67,1.06-.51,2.15-1.08,2.66-.4.63-1.06,1.54-2,2.4-1.21,1.09-2.58,1.83-4.08,2.19-.72.18-1.41.27-2.06.27-2.29,0-3.52-1.09-4.04-1.73-.56.38-1.62.98-2.67.98-.39,0-.75-.08-1.07-.24-.89-.45-1.3-1.41-1.47-2.35-.92.67-2.43,1.53-4.64,2.07-.86.21-1.62.32-2.26.32-.91,0-1.47-.22-1.81-.47-.58.91-1.88,2.5-3.78,2.51-1.16,0-1.88-.44-2.3-1-.41,1.18-1.17,2.72-2.43,3.24-.27.11-.54.17-.79.17-.74,0-1.28-.44-1.66-.96-.21,1.32-.67,3.09-1.72,4.25-.63.69-1.26,1.05-1.87,1.05-.26,0-.48-.06-.68-.16-.11,1.39-.45,3.77-1.53,4.56-.37.27-.72.41-1.06.41-.12,0-.24-.02-.35-.05.04,1.45-.09,3.45-.96,4.43-.42.47-.93.73-1.48.73-.42,0-.79-.14-1.1-.32-.18,1.81-.78,5.67-2.64,6.52-.28.13-.56.19-.84.19-1.04,0-1.7-.88-2.1-1.76-.58,2.27-1.81,5.98-3.76,6.75-.5.2-.92.29-1.29.29-.6,0-.95-.26-1.14-.47-.01-.01-.02-.03-.03-.04-.65,1.25-1.77,2.88-3.35,3.35-.35.1-.65.16-.92.16-.45,0-.74-.15-.92-.32-.86,1.52-2.64,3.81-6.06,5.58-1.25.65-2.41,1-3.35,1Z"/>
              <path class="cls-5" d="M32.54.94c1.73,0,3.86,1.18,9.59,4.55,3.67,2.16,8.9,3.53,13.75,4.39,6.85,1.21,12.97,1.42,12.97,1.42.05,0,.1,0,.15,0,6.44,0,8.81.64,9.35,1.49.41.65-.28,1.43-1.04,2.11-.39.63-1.03,1.52-1.96,2.36-.97.88-2.25,1.69-3.87,2.09-.73.18-1.38.25-1.95.25-2.92,0-3.93-1.92-3.93-1.92,0,0-1.43,1.17-2.78,1.17-.3,0-.59-.06-.86-.19-1.02-.51-1.26-1.93-1.31-2.82-.57.51-2.2,1.79-5.12,2.51-.9.22-1.6.31-2.15.31-1.65,0-1.88-.78-1.89-.81,0,0-1.36,2.83-3.71,2.85-.01,0-.02,0-.03,0-2.32,0-2.32-2.07-2.32-2.07,0,0-.67,3.57-2.55,4.34-.22.09-.43.13-.62.13-1.43,0-1.97-2.26-1.97-2.26,0,0-.05,3.81-1.77,5.7-.61.68-1.12.89-1.53.89-.72,0-1.1-.7-1.1-.7,0,0-.06,4.22-1.39,5.19-.31.23-.57.31-.78.31-.63,0-.87-.77-.9-.91.04.36.42,4.13-.75,5.45-.38.42-.77.57-1.13.57-.82,0-1.5-.75-1.5-.75,0,0-.32,6.03-2.44,6.99-.23.1-.45.15-.65.15-1.62,0-2.17-3.09-2.17-3.09,0,0-1.34,7.12-3.86,8.12-.46.18-.83.26-1.12.26-1.2,0-1.06-1.31-1.03-1.47-.11.28-1.4,3.67-3.61,4.32-.32.1-.57.14-.78.14-1,0-.84-.95-.71-1.39-.32.87-1.8,4.27-6.48,6.7-1.21.63-2.29.94-3.14.94-1.73,0-2.55-1.28-1.79-3.83.08-.28.19-.58.32-.91.66-1.65,1.88-3.73,3.81-6.23,1.68-2.18,3.02-4.08,4.08-5.71,2.81-4.3,3.72-6.73,3.98-7.59,0-.03.02-.06.02-.07.01-.02.01-.05.02-.06.04-.12.04-.19.05-.22-.29.23-.58.44-.86.64-1.34.96-2.55,1.57-3.53,1.86-.46.14-.88.21-1.24.21-2.62,0-2.28-3.59,4.05-9.76,4.11-3.99,7.17-8.81,9.6-13.13,3.26-5.79,5.41-10.68,7.46-11.59,1.29-.57,2.14-.94,3.11-.94M32.54,0c-1.16,0-2.13.42-3.46,1-1.89.83-3.52,3.87-5.78,8.07-.68,1.26-1.37,2.56-2.15,3.93-2.17,3.85-5.2,8.8-9.43,12.92-4.51,4.39-6.53,7.94-5.69,10,.35.87,1.19,1.37,2.29,1.37.45,0,.96-.08,1.51-.25.66-.19,1.39-.51,2.15-.94-.59,1.21-1.5,2.85-2.89,4.97-1.15,1.76-2.5,3.66-4.04,5.65-1.87,2.43-3.2,4.6-3.94,6.45-.15.37-.26.69-.34.99-.51,1.7-.42,3.02.26,3.94.37.5,1.09,1.09,2.43,1.09,1.03,0,2.23-.35,3.57-1.05,3.22-1.67,5.03-3.79,6-5.35.21.08.46.14.76.14s.66-.06,1.05-.18c1.51-.45,2.63-1.85,3.34-3.07.26.15.59.26,1.03.26s.91-.11,1.46-.33c1.85-.74,3.06-3.68,3.75-6.01.46.6,1.09,1.05,1.93,1.05.34,0,.69-.08,1.03-.23,1.88-.85,2.59-4.18,2.85-6.26.22.06.45.1.7.1.48,0,1.18-.15,1.83-.88.86-.97,1.08-2.73,1.08-4.22.4-.03.8-.19,1.21-.49,1.09-.8,1.51-2.8,1.67-4.33.08.01.17.02.26.02.75,0,1.5-.4,2.22-1.2.89-.98,1.39-2.37,1.66-3.59.37.27.82.45,1.37.45.32,0,.64-.07.97-.2,1.19-.49,1.96-1.71,2.44-2.84.5.38,1.18.63,2.08.63,1.9-.01,3.23-1.37,3.96-2.36.4.18.95.31,1.68.31.68,0,1.48-.11,2.37-.34,1.87-.46,3.27-1.14,4.24-1.76.3.95.82,1.63,1.55,2,.39.2.83.29,1.29.29.99,0,1.95-.45,2.59-.84.69.7,1.98,1.59,4.11,1.59.68,0,1.42-.09,2.17-.28,1.57-.38,3.02-1.15,4.28-2.3.96-.87,1.63-1.79,2.05-2.44.6-.54,1.96-1.87,1.11-3.22-.62-1-2.28-1.93-10.14-1.93h-.16s-6.1-.22-12.8-1.41c-5.86-1.03-10.38-2.47-13.44-4.28-6.01-3.54-8.11-4.68-10.06-4.68h0Z"/>
            </g>
            <path class="cls-2" d="M75.34,17.26c-.97.88-2.25,1.69-3.87,2.09-4.43,1.08-5.88-1.67-5.88-1.67,0,0-2.12,1.73-3.65.98-1.02-.51-1.26-1.93-1.31-2.82-.57.51-2.2,1.79-5.12,2.51-3.62.9-4.02-.46-4.03-.5,0,0-1.36,2.83-3.71,2.85-2.35.02-2.35-2.07-2.35-2.07,0,0-.67,3.57-2.55,4.34-1.89.77-2.58-2.13-2.58-2.13,0,0-.05,3.81-1.77,5.7-1.71,1.89-2.63.2-2.63.2,0,0-.06,4.22-1.39,5.19-1.23.9-1.63-.41-1.68-.6.04.36.42,4.13-.75,5.45-1.22,1.38-2.63-.18-2.63-.18,0,0-.32,6.03-2.44,6.99s-2.82-2.94-2.82-2.94c0,0-1.34,7.12-3.86,8.12-2.39.95-2.18-1.01-2.15-1.21-.11.28-1.4,3.67-3.61,4.32-1.85.55-1.65-.73-1.49-1.25-.32.87-1.8,4.27-6.48,6.7-3.94,2.04-6.42.74-4.61-3.79-.1,1.44.7,1.61,1.77,1.89,2.82.72,5.88-3.43,7.85-6.04,1.97-2.61,3.44-5.7,3.44-5.7,0,0-1.11,5.52.35,5.06,1.41-.45,3.49-6.45,3.64-6.77-.03.28-.14,4.13,1.79,3.3,2-.86,2.84-10.48,2.84-10.48,0,0,1.67,6.1,3.13,5.35,1.45-.74,1.42-9.29,1.42-9.29,0,0,1.95,4.3,2.79,2.86.83-1.45.34-5.22.34-5.22,0,0,1.65,1.79,2.63.49.99-1.31,1.37-6.74,1.37-6.74,0,0,1.41,3.65,2.71,2.33,1.26-1.28,2.46-6.28,2.54-6.59.03.29.47,3.87,1.89,3,1.49-.9,2.72-4.9,2.89-4.94s.18,3.77,2.1,3.07c1.92-.69,4.06-3.74,4.06-3.74,0,0,1.63,1.79,4.64.81,3.01-.98,6.99-2.91,6.99-2.91,0,0-1.15,2.81.05,3.12,1.2.32,3.43-.92,3.43-.92,0,0,2.07,3.5,6.4,2.55.86-.19,1.63-.45,2.31-.76Z"/>
            <path class="cls-2" d="M49.54,11.56c-.21.2-1.99,1.84-3.36,2.14-1.46.32-1.97-.92-1.97-.92,0,0-3.09,2.88-4.43,2.95-1.35.07-1.78-1.29-1.78-1.29,0,0-.68,2.85-2.29,3.02-1.61.18-2.26-1.73-2.26-1.73,0,0-1.31,5.49-2.84,6.19-1.54.7-2.3-1.75-2.3-1.75,0,0-.79,4.46-2.68,6.26-1.9,1.8-2.92-.84-2.92-.84,0,0-.54,5.12-7.89,11.97-1.71,1.6-3.38,2.94-4.93,4.03,2.81-4.3,3.72-6.73,3.98-7.59.39-.3.77-.6,1.12-.89,3.56-2.99,5.65-7.32,6.38-9.29.62-1.65.91-2.75.98-3.01-.06.45-.29,3.5,1.94,2.58,2.38-.99,2.89-6.08,2.89-6.08,0,0,.36,1.79,2.9.49,2.54-1.3,2.96-5.17,2.96-5.17,0,0,.79,1.99,2.08,2.15,1.29.16,2.59-2.24,2.59-2.24,0,0,1.18,1.57,2.81,1.18,1.62-.39,3.95-2.71,3.95-2.71,0,0,.59,2.46,2.42,1.81,1.66-.58,2.53-1.18,2.66-1.27Z"/>
            <path class="cls-5" d="M12.59,35.03c4.74-3.99,8.7-9.18,9.58-15.45,0,0,.73.11.73.11-.16,1.01-.74,3.74.82,3.67.47-.05.89-.36,1.21-.75,1.3-1.62,1.79-3.82,2.15-5.84.03-.19.32-.2.36-.01.68,2.24,2.67,1.06,3.54-.39.93-1.44,1.49-3.17,1.88-4.86.06-.24.29-.38.53-.33.22.05.36.26.34.48-.32,4.01,2.64,2.93,3.76.19.16-.39.76-.37.9.02.46,1.25,1.57,1.86,2.81,1.08,1.24-.64,2.41-1.53,3.34-2.56.13-.14.35-.15.49-.02.07.07.11.16.11.26-.05,1.09.69,2.12,1.88,1.96,1.16-.04,2.2-.9,3.09-1.6-.66.98-1.82,1.81-3.05,2.04-1.45.32-2.61-1-2.62-2.4,0,0,.61.22.61.22-1.9,2.22-5.87,5.56-7.59,1.35,0,0,.9.02.9.02-.31.71-.68,1.33-1.2,1.91-2.46,2.56-4.82.6-4.33-2.58,0,0,.87.15.87.15-.76,2.56-1.67,5.8-4.46,6.77-1.07.33-1.98-.65-2.17-1.62,0,0,.36-.01.36-.01-.46,2.1-.95,4.24-2.24,6.01-.34.42-.82.82-1.41.94-.62.18-1.32-.32-1.49-.92-.37-1.13-.26-2.22-.13-3.32.02-.2.21-.35.41-.32.21.03.36.23.32.43-.71,6.31-4.99,12.48-10.32,15.37h0Z"/>
          </g>
          <path class="cls-8" d="M68.84,11.3s-17.86-.6-26.72-5.81C33.17.22,33.02.31,29.43,1.88c-3.58,1.57-7.46,15.38-17.05,24.72-9.44,9.2-5.57,12.67,1.58,7.06,0,.03-.02.12-.07.28.58-.6.94-1.02.99-1.09-.28.14-6.5,3.46-6.45.89.03-1.39,1.06-2.35,3-4.32.02.02.02.05.04.07.43.44,1.54.03,2.5-.9.96-.93,1.38-2.04.96-2.48-.08-.08-.19-.12-.3-.15,1.22-1.42,2.59-3.14,4.14-5.34C25.42,11.15,28.69,1.03,32.25,1.73c3.57.7,8.86,6.2,21.59,8.99,8.4,1.84,18.56,2.11,24.5,2.08-.54-.86-2.95-1.5-9.5-1.49Z"/>
          <ellipse class="cls-9" cx="16.46" cy="27.27" rx="1.28" ry=".56" transform="translate(-14.37 19.28) rotate(-44.35)"/>
          <path class="cls-1" d="M13.09,34.29c-1.34.96-2.55,1.57-3.53,1.86l3.53-1.86Z"/>
          <path class="cls-11" d="M23.02,41.25c-.09.54-.94,5.13-2.42,4.94-1.49-.2-1.56-2.92-1.57-3.17-.13.31-2.18,5.21-3.1,5.66-.94.47-1.86.21-1.47-2.61,0,0-4.54,9.64-10.32,10.51-1.62.25-2.31-.68-2.49-2.13.08-.28.19-.58.32-.9.66-1.65,1.88-3.73,3.81-6.23,1.68-2.18,3.02-4.08,4.08-5.71,2.81-4.3,3.72-6.73,3.98-7.59,0-.03.02-.06.02-.07.01-.02.01-.05.02-.06l.58-.31s-3.61,6.85-7.77,13.94c-4.15,7.08-5.04,9.84.42,6.58,5.46-3.26,8.04-10.75,8.04-10.75,0,0-.76,4.1.62,3.79,1.34-.3,3.47-5.15,3.6-5.45-.02.22-.21,3.23,1.27,3.2,1.43-.01,2.25-3.19,2.36-3.64Z"/>
          <path class="cls-10" d="M55.88,9.88c-2.42,3.17-10.18,6.42-20.39,6.64-5.25.11-9.91-1.35-13.52-3.06,3.26-5.79,5.41-10.68,7.46-11.59,3.59-1.57,3.74-1.66,12.7,3.62,3.67,2.16,8.9,3.53,13.75,4.39Z"/>
        </g>
      </g>
    </g>
  </g>
</svg>